<svg width="127" height="127" viewBox="0 0 127 127" fill="none" xmlns="http://www.w3.org/2000/svg">
<path d="M100.542 58.2083H26.4583C20.6133 58.2083 15.875 62.9466 15.875 68.7917V105.833C15.875 111.678 20.6133 116.417 26.4583 116.417H100.542C106.387 116.417 111.125 111.678 111.125 105.833V68.7917C111.125 62.9466 106.387 58.2083 100.542 58.2083Z" fill="#140B00" stroke="#140B00" stroke-width="4" stroke-linecap="round" stroke-linejoin="round"/>
<path d="M37.0416 58.2083V37.0417C37.0416 30.0245 39.8292 23.2947 44.7911 18.3328C49.753 13.3709 56.4828 10.5833 63.5 10.5833C70.5171 10.5833 77.2469 13.3709 82.2088 18.3328C87.1707 23.2947 89.9583 30.0245 89.9583 37.0417V58.2083" stroke="#140B00" stroke-width="8" stroke-linecap="round" stroke-linejoin="round"/>
</svg>
