<svg width="145" height="24" viewBox="0 0 145 24" fill="none" xmlns="http://www.w3.org/2000/svg">
<path d="M89.415 23.9968V16.6798H107.856V23.9968H89.415Z" fill="#EF7D00"/>
<path d="M0 0H9.4683V23.9968H0V0Z" fill="#EF7D00"/>
<path d="M21.5098 23.9968H14.3079V0.0574951H21.5098V23.9968Z" fill="#EF7D00"/>
<path d="M26.7874 0H37.0453L45.008 14.9313L53.0026 0H62.8865V23.9968H55.7581V7.38732L46.6798 23.9968H42.8055L33.7272 7.38732V23.9968H26.7874V0Z" fill="#EF7D00"/>
<path d="M85.9339 0.0574951V5.49489H72.7607V9.03352H85.6174V14.5029H72.7607V23.9968H67.0676V0.0574951H85.9339Z" fill="#EF7D00"/>
<path d="M95.1465 0V18.0288H107.859V23.9968H89.4182V0H95.1465Z" fill="#EF7D00"/>
<path d="M116.618 23.9968H110.902V0H116.618V23.9968Z" fill="#EF7D00"/>
<path d="M119.367 23.9968L128.349 12.0256L119.562 0.310059H127.135L132.233 7.24985L137.332 0.310059H144.275L135.609 11.8689L144.47 24H137.357L131.824 16.6446L126.339 24H119.373L119.367 23.9968Z" fill="#EF7D00"/>
</svg>
