<svg width="193" height="35" viewBox="0 0 193 35" fill="none" xmlns="http://www.w3.org/2000/svg">
<path d="M119.22 34.434V24.0895H143.808V34.434H119.22Z" fill="white"/>
<path d="M0 0.508118H12.6244V34.434H0V0.508118Z" fill="white"/>
<path d="M28.6798 34.434H19.0772V0.589447H28.6798V34.434Z" fill="white"/>
<path d="M35.7166 0.508118H49.3937L60.0106 21.6174L70.6702 0.508118H83.8487V34.434H74.3441V10.9521L62.2397 34.434H57.074L44.9696 10.9521V34.434H35.7166V0.508118Z" fill="white"/>
<path d="M114.579 0.589447V8.27666H97.0143V13.2794H114.157V21.0119H97.0143V34.434H89.4235V0.589447H114.579Z" fill="white"/>
<path d="M126.862 0.508118V25.9966H143.812V34.434H119.224V0.508118H126.862Z" fill="white"/>
<path d="M155.491 34.434H147.87V0.508118H155.491V34.434Z" fill="white"/>
<path d="M159.156 34.434L171.133 17.5095L159.416 0.946503H169.513L176.311 10.7578L183.109 0.946503H192.366L180.812 17.288L192.626 34.4385H183.143L175.766 24.0398L168.452 34.4385H159.165L159.156 34.434Z" fill="white"/>
</svg>
