<svg width="305" height="200" viewBox="0 0 305 200" fill="none" xmlns="http://www.w3.org/2000/svg">
<mask id="mask0_35_524" style="mask-type:alpha" maskUnits="userSpaceOnUse" x="0" y="0" width="305" height="200">
<rect width="305" height="200" rx="10" fill="#D9D9D9"/>
</mask>
<g mask="url(#mask0_35_524)">
<path d="M236.018 176.325C221.908 176.325 207.806 176.359 193.695 176.308C188.056 176.291 187.069 175.599 186.956 171.906C186.566 159.673 186.203 147.441 185.873 135.203C185.778 131.577 187.563 130.374 193.063 130.34C209.157 130.233 225.26 130.159 241.354 130.091C253.204 130.04 265.045 129.989 276.894 130C283.244 130.006 285.279 131.242 285.331 135.333C285.496 147.282 285.591 159.236 285.565 171.185C285.556 176.138 285.028 176.433 277.301 176.467C263.537 176.524 249.782 176.484 236.018 176.484C236.018 176.433 236.018 176.382 236.018 176.325ZM283.166 137.881C282.525 137.432 281.875 136.996 281.26 136.536C279.051 134.891 276.886 133.217 274.616 131.6C274.131 131.254 273.3 131.118 271.983 130.664C276.115 134.125 279.736 137.166 283.365 140.201L283.85 140.11C283.599 139.356 283.348 138.601 283.096 137.841C283.131 137.035 283.625 136.048 283.096 135.452C281.927 134.153 280.264 133.041 278.748 131.884C278.254 131.509 277.596 131.225 277.016 130.902C277.934 132.19 279.354 133.166 280.428 134.284C281.511 135.407 282.265 136.672 283.157 137.875L283.166 137.881ZM235.169 135.861C235.169 135.725 235.169 135.583 235.169 135.447C224.09 135.447 213.012 135.447 201.933 135.447C197.013 135.447 196.138 136.014 196.147 139.146C196.155 143.736 196.077 148.326 196.103 152.91C196.129 157.892 196.103 162.873 196.363 167.855C196.467 169.937 198.347 170.89 201.456 170.884C224.047 170.839 246.638 170.788 269.228 170.725C273.456 170.714 274.374 170.084 274.365 167.293C274.33 158.119 274.287 148.939 274.235 139.764C274.218 136.093 274.01 135.901 268.406 135.878C257.327 135.827 246.248 135.861 235.169 135.861ZM268.648 130.8C268.527 130.925 268.414 131.044 268.293 131.169C273.36 135.39 278.436 139.617 283.963 144.218C283.659 142.942 283.893 141.852 283.174 141.268C279.172 138.017 274.963 134.874 270.77 131.725C270.233 131.322 269.367 131.101 268.657 130.8H268.648ZM194.068 149.018C194.31 148.939 194.562 148.865 194.804 148.785C194.328 145.166 190.265 142.664 188.091 139.571C187.77 139.674 187.441 139.776 187.121 139.878C189.434 142.925 191.755 145.971 194.068 149.018ZM194.319 144.593C194.57 144.536 194.821 144.485 195.064 144.428C193.461 141.251 190.404 138.561 187.762 135.713C187.485 136.161 187.216 136.632 187.459 136.916C189.693 139.492 192.024 142.039 194.319 144.593ZM188.593 164.7C188.429 164.728 188.264 164.757 188.108 164.779C188.247 165.404 188.204 166.079 188.559 166.64C190.239 169.284 191.989 171.906 193.808 174.51C194.076 174.89 194.856 175.111 195.393 175.406C195.497 175.293 195.61 175.185 195.714 175.072C193.34 171.616 190.967 168.155 188.593 164.7ZM188.567 160.938L187.701 161.199C188.481 162.198 189.364 163.162 190.031 164.189C192.231 167.565 194.328 170.964 196.528 174.334C196.805 174.759 197.429 175.094 197.888 175.474C198.009 175.395 198.139 175.315 198.26 175.236C195.029 170.47 191.798 165.704 188.567 160.938ZM283.919 161.228C282.542 158.448 279.12 156.553 276.357 154.351C277.388 157.296 281.121 159.026 283.919 161.228ZM276.444 164.099C276.132 164.28 275.82 164.467 275.508 164.649C278.22 166.737 280.922 168.83 283.633 170.918C283.876 170.794 284.11 170.669 284.352 170.544C282.94 167.77 278.791 166.396 276.453 164.099H276.444ZM283.711 158.55C283.928 158.482 284.153 158.408 284.37 158.34C283.235 155.242 278.817 153.676 276.505 151.123C276.184 151.27 275.872 151.418 275.552 151.56C278.272 153.886 280.991 156.218 283.711 158.544V158.55ZM275.985 145.648C277.249 148.717 281.451 150.385 284.101 152.797C282.62 149.829 278.887 147.94 275.985 145.648ZM273.057 175.537C271.229 174.141 270.857 172.422 268.111 171.645C269.029 172.95 269.748 173.971 270.467 174.986C270.233 175.077 269.999 175.162 269.774 175.253C268.371 174.05 266.959 172.847 265.556 171.645L265.045 171.928C266.067 173.131 267.098 174.328 268.128 175.542H273.048L273.057 175.537ZM276.314 139.503C276.019 139.639 275.725 139.781 275.43 139.917C278.098 142.232 280.766 144.553 283.434 146.868C283.633 146.777 283.824 146.686 284.023 146.601C282.949 143.549 278.635 141.988 276.323 139.503H276.314ZM276.002 142.034C275.89 143.577 280.532 147.878 284.127 149.886C282.837 146.839 278.696 145.069 276.002 142.034ZM276.444 166.964C276.158 167.14 275.872 167.321 275.578 167.497C278.185 169.494 280.801 171.486 283.408 173.483C283.651 173.352 283.893 173.228 284.144 173.097C282.854 170.391 278.324 169.358 276.444 166.958V166.964ZM188.455 153.597C188.16 153.687 187.866 153.773 187.571 153.863C189.659 156.717 191.746 159.565 193.834 162.419C194.128 162.334 194.423 162.243 194.717 162.158C193.297 159.111 190.291 156.524 188.455 153.602V153.597ZM194.362 140.797C193.921 137.586 190.265 135.458 187.996 132.428C187.693 133.047 187.467 133.262 187.554 133.359C189.806 135.849 192.084 138.323 194.362 140.803V140.797ZM247.894 171.684C249.54 175.452 250.882 176.121 254.719 175.355C253.464 174.118 252.216 172.893 250.969 171.673C250.804 171.752 250.631 171.832 250.466 171.911C251.246 172.899 252.017 173.886 252.797 174.879C252.545 174.981 252.294 175.089 252.043 175.191C250.657 174.022 249.28 172.859 247.894 171.69V171.684ZM283.053 174.981C280.359 173.171 277.96 171.554 276.314 170.447C277.483 171.503 279.276 173.188 281.225 174.794C281.537 175.055 282.577 174.941 283.053 174.981ZM260.792 134.579C258.817 133.546 258.843 131.174 255.404 131.208C257.292 132.298 256.885 134.896 260.792 134.579ZM188.325 143.861C188.108 143.94 187.9 144.014 187.684 144.093C189.823 146.919 191.954 149.744 194.094 152.564C194.302 152.496 194.518 152.428 194.726 152.36C193.747 149.16 189.971 146.845 188.316 143.861H188.325ZM276.834 175.491C273.3 171.696 273.204 171.628 271.039 171.911C273.473 172.853 272.529 175.639 276.834 175.491ZM283.902 155.526C284.179 154.329 279.32 150.232 275.777 148.978C278.48 151.157 281.182 153.33 283.902 155.526ZM188.377 147.214C188.117 147.31 187.857 147.401 187.597 147.497C189.771 150.255 191.946 153.012 194.12 155.77C194.328 155.702 194.536 155.639 194.735 155.571C193.401 152.536 189.927 150.175 188.368 147.214H188.377ZM201.275 175.52C201.465 175.395 201.647 175.264 201.838 175.14C200.599 173.835 199.352 172.53 198.113 171.225C197.818 171.35 197.524 171.474 197.229 171.599C198.849 172.779 197.992 175.106 201.275 175.52ZM283.772 165.818C283.945 165.727 284.11 165.636 284.283 165.545C282.776 163.032 279.017 161.733 276.634 159.696C276.453 159.792 276.279 159.889 276.097 159.985C278.653 161.931 281.217 163.877 283.772 165.823V165.818ZM283.824 168.065L284.673 167.594C281.901 165.744 279.233 163.838 276.557 161.937C276.366 162.045 276.175 162.147 275.994 162.255C278.609 164.195 281.217 166.13 283.833 168.07L283.824 168.065ZM243.528 175.696C241.735 174.141 240.314 172.91 238.894 171.684C238.695 171.775 238.495 171.866 238.296 171.957C239.145 173.194 239.994 174.436 240.86 175.696H243.528ZM244.853 134.567C243.164 133.489 243.156 131.345 239.959 131.265C241.501 132.434 241.77 134.386 244.853 134.567ZM213.644 131.18C215.368 132.093 214.354 134.544 217.949 134.397C216.407 133.381 216.572 131.407 213.644 131.18ZM231.808 134.862C230.301 132.014 229.21 131.186 226.836 131.208C228.534 132.389 228.716 134.13 231.808 134.862ZM233.134 175.792C233.324 175.667 233.506 175.537 233.697 175.412C232.553 174.152 231.401 172.887 230.258 171.628C229.911 171.781 229.565 171.934 229.218 172.082C231.098 173.063 230.267 175.242 233.142 175.786L233.134 175.792ZM249.055 134.8C247.097 133.359 246.594 131.685 243.927 131.259C245.477 132.326 245.113 134.493 249.055 134.8ZM221.05 134.493C220.019 133.268 219.959 131.577 217.351 131.152C218.737 132.207 218.174 134.164 221.05 134.493ZM231.878 130.851C231.54 131.027 231.202 131.203 230.864 131.379C232.51 132.303 232.285 134.232 234.849 134.664C235.065 134.556 235.282 134.448 235.49 134.34C234.286 133.177 233.073 132.014 231.869 130.851H231.878ZM260.471 175.673C260.644 175.548 260.826 175.418 260.999 175.293C259.588 174.028 258.184 172.762 256.772 171.497C256.469 171.662 256.166 171.821 255.863 171.985C257.933 172.933 257.5 175.202 260.462 175.679L260.471 175.673ZM224.368 175.44C223.25 174.118 222.211 172.904 221.18 171.696C220.963 171.781 220.738 171.872 220.522 171.957C221.31 174.334 222.427 175.463 224.368 175.44ZM280.541 175.281C279.415 174.487 278.358 173.778 277.362 173.035C276.435 172.342 275.569 171.611 274.677 170.901C277.183 173.916 279.138 175.376 280.541 175.281ZM195.272 131.123C195.081 131.225 194.891 131.328 194.7 131.435C196.554 134.454 197.039 134.805 198.901 134.249C197.671 133.188 196.467 132.156 195.272 131.129V131.123ZM194.258 137.33C194.406 134.868 191.192 133.705 189.962 131.77C189.771 131.844 189.589 131.918 189.399 131.986C191.019 133.767 192.639 135.549 194.258 137.325V137.33ZM193.895 166.323C194.215 166.232 194.544 166.141 194.865 166.045C193.444 164.144 192.024 162.238 190.603 160.337L190.031 160.502C191.322 162.442 192.604 164.377 193.895 166.317V166.323ZM224.766 130.953C224.324 132.712 226.334 134.516 228.162 134.414C226.992 133.223 225.875 132.088 224.766 130.953ZM246.369 175.599C245.468 174.765 244.732 174.101 244.013 173.426C243.398 172.853 242.8 172.269 242.194 171.69C242.012 171.786 241.83 171.883 241.648 171.974C243.75 174.391 245.327 175.597 246.378 175.594L246.369 175.599ZM212.171 171.747C211.99 171.838 211.816 171.928 211.634 172.019C213.09 174.862 213.887 175.52 215.723 175.333C214.519 174.124 213.349 172.938 212.171 171.752V171.747ZM224.22 171.718C225.234 175.298 225.485 175.542 227.694 175.418C226.481 174.13 225.346 172.927 224.22 171.718ZM221.414 130.942C221.691 133.512 222.86 134.573 224.714 134.352C223.579 133.183 222.497 132.059 221.414 130.942ZM195.367 135.674C196.199 134.925 194.25 132.678 191.729 131.56C192.924 132.91 194.12 134.261 195.367 135.674ZM238.461 175.9C238.755 175.764 239.05 175.628 239.344 175.491C238.227 174.249 237.11 173.012 235.992 171.769C235.767 171.86 235.533 171.951 235.308 172.047C236.356 173.33 237.413 174.618 238.461 175.9ZM262.922 130.806C262.645 130.953 262.368 131.101 262.1 131.248C263.858 132.326 264.334 134.102 267.219 134.573C265.79 133.319 264.36 132.059 262.931 130.806H262.922ZM201.491 171.497C201.638 173.954 202.842 175.355 204.592 175.338C203.518 174.011 202.505 172.751 201.491 171.497ZM259.951 171.747C259.743 171.855 259.544 171.962 259.336 172.07C261.077 173.086 261.346 174.896 264.17 175.321C262.767 174.13 261.355 172.938 259.951 171.747ZM233.142 171.781L232.562 172.03C233.87 173.245 234.112 174.907 236.65 175.588C235.481 174.317 234.312 173.052 233.134 171.781H233.142ZM262.948 134.964C263.243 134.817 263.537 134.664 263.832 134.516C262.489 133.313 261.147 132.116 259.804 130.913C259.622 131.01 259.432 131.112 259.25 131.208C260.488 132.462 261.718 133.71 262.957 134.964H262.948ZM214.493 134.425C213.28 133.098 212.258 131.98 211.236 130.868C211.045 130.953 210.864 131.038 210.673 131.123C211.756 133.449 212.596 134.255 214.493 134.431V134.425ZM247.963 131.157C247.764 131.248 247.565 131.345 247.365 131.435C248.847 132.411 249.072 134.051 251.003 134.794C251.229 134.681 251.445 134.567 251.67 134.454C250.44 133.353 249.202 132.258 247.972 131.157H247.963ZM248.353 175.815C248.595 175.696 248.838 175.582 249.08 175.463L245.087 171.758C244.897 171.849 244.706 171.945 244.524 172.036C245.798 173.296 247.08 174.555 248.353 175.809V175.815Z" fill="black"/>
<path d="M291.966 177.352C292.157 178.476 292.364 179.253 292.416 180.03C292.538 182.061 291.342 183.088 288.302 183.514C287.21 183.667 286.067 183.695 284.95 183.695C256.4 183.82 227.849 183.951 199.299 184.03C194.89 184.042 190.481 183.832 186.081 183.622C184.834 183.565 183.508 183.293 182.426 182.884C180.494 182.164 179.255 179.94 180.373 178.521C180.84 177.925 182.902 177.613 184.245 177.608C198.866 177.545 213.488 177.591 228.109 177.557C247.313 177.511 266.526 177.42 285.729 177.352C287.774 177.347 289.818 177.352 291.975 177.352H291.966ZM228.464 180.303C233.324 181.347 238.279 180.791 243.207 180.921C243.216 180.717 243.225 180.513 243.233 180.303H228.464ZM199.958 182.947C198.745 181.386 197.662 179.974 196.571 178.566C196.38 178.629 196.198 178.691 196.008 178.754C196.779 180.013 197.541 181.267 198.312 182.527C198.104 182.589 197.896 182.646 197.688 182.708C197.411 182.515 197.142 182.317 196.857 182.13C196.623 181.976 196.363 181.834 195.834 181.522C196.36 182.495 197.734 182.969 199.958 182.947ZM215.619 178.635C215.584 181.721 217.212 183.049 220.348 182.447C219.854 182.391 219.361 182.334 218.165 182.198C217.542 181.324 216.58 179.979 215.619 178.635ZM266.534 178.442C266.673 180.887 268.059 182.595 269.583 182.538C268.552 181.154 267.548 179.798 266.534 178.442ZM272.468 182.589C271.333 181.165 270.25 179.809 269.159 178.453C269.618 181.052 270.874 182.498 272.468 182.589ZM282.507 178.033C282.767 180.581 284.421 182.555 285.92 182.442C284.88 181.097 283.858 179.775 282.507 178.033ZM258.149 182.805C258.357 182.714 258.574 182.623 258.782 182.527L255.759 178.532C255.507 178.618 255.248 178.697 254.996 178.782C256.044 180.121 257.101 181.46 258.149 182.799V182.805Z" fill="black"/>
<path d="M360.12 173.997V162.695C352.619 163.813 345.23 164.954 337.815 166.02C332.601 166.769 332.575 166.724 332.696 170.236C332.817 173.685 333.155 177.141 333.051 180.59C332.852 187.489 323.705 192.17 313.258 190.842C307.152 190.065 304.908 186.19 308.78 182.962C312.366 179.972 317.277 178.831 322.934 178.826C323.8 178.826 324.666 178.837 325.524 178.837C325.593 178.837 325.662 178.775 325.844 178.689C325.844 174.638 325.844 170.525 325.844 166.417C325.844 163.189 325.844 159.966 325.81 156.738C325.792 154.979 327.118 154.071 329.708 153.703C340.691 152.137 351.649 150.508 362.632 148.942C363.94 148.755 365.335 148.84 366.738 148.795C366.868 149.254 367.006 149.527 367.015 149.799C367.171 158.117 367.405 166.434 367.396 174.746C367.396 177.441 366.079 179.983 363.611 182.213C359.886 185.577 353.121 187.291 347.11 186.394C343.679 185.884 341.93 184.465 341.938 182.173C341.947 179.938 343.342 178.094 345.958 176.698C350.011 174.525 354.62 173.453 360.111 173.997H360.12ZM354.897 151.11C353.52 151.331 351.726 151.269 350.843 151.825C348.21 153.493 345.932 155.405 343.506 157.22C343.671 157.351 343.835 157.476 344 157.606C344.866 157.186 345.81 156.817 346.59 156.335C349.388 154.616 352.134 152.857 354.897 151.11C352.506 152.976 350.107 154.843 347.716 156.71C347.915 156.84 348.106 156.971 348.305 157.107C352.593 155.586 354.931 152.681 358.162 150.304C357.071 150.571 355.98 150.843 354.888 151.11H354.897ZM365.248 154.446C365.638 153.357 366.028 152.262 366.409 151.172C359.981 155.274 360.891 154.735 362.052 156.125C363.143 155.547 364.243 154.968 365.335 154.383C364.503 155.212 363.706 156.057 362.84 156.869C361.081 158.514 359.288 160.137 357.504 161.771L358.327 162.224C359.107 161.788 360.025 161.419 360.648 160.903C362.355 159.501 363.957 158.043 365.56 156.585C366.391 155.83 366.894 155.059 365.248 154.446ZM332.592 163.257C331.007 164.42 329.361 165.544 327.88 166.763C327.343 167.2 327.222 167.847 326.91 168.403C327.083 168.431 327.265 168.466 327.438 168.494C330.115 166.661 332.791 164.829 336.005 162.633C334.385 162.951 333.441 163.138 332.497 163.32C332.228 162.554 331.674 161.771 331.786 161.027C331.89 160.347 332.445 159.416 333.25 159.11C335.684 158.191 341.982 154.503 343.411 152.517C341.826 152.965 340.301 153.504 339.054 154.242C337.01 155.45 335.199 156.823 333.19 158.06C331.431 159.144 329.5 160.103 327.733 161.186C327.213 161.504 327.022 162.054 326.684 162.497C326.832 162.565 326.979 162.633 327.126 162.701C328.33 162.156 329.534 161.612 330.738 161.073C330.019 162.945 325.342 163.314 327.092 165.85C328.928 164.988 330.764 164.125 332.592 163.263V163.257ZM333.12 162.293C333.779 162.264 334.472 162.293 335.121 162.196C343.021 160.954 350.921 159.728 358.786 158.412C361.012 158.043 360.986 156.959 360.137 155.654C358.847 155.893 357.712 156.125 356.551 156.307C349.76 157.385 342.995 158.559 336.152 159.467C332.601 159.938 332.497 159.756 333.12 162.293ZM346.668 185.77C352.887 182.383 358.968 179.126 364.927 175.779C365.828 175.274 366.183 174.355 366.79 173.629C366.599 173.578 366.4 173.526 366.209 173.475C358.968 177.197 351.735 180.919 344.372 184.698C344.892 184.942 345.568 185.26 346.676 185.77H346.668ZM331.908 176.403C324.848 180.692 317.84 184.942 310.842 189.191C311.101 189.469 311.361 189.753 311.621 190.031C312.522 189.821 313.665 189.776 314.298 189.384C319.703 186.06 324.961 182.638 330.392 179.336C331.916 178.411 332.393 177.504 331.899 176.403H331.908ZM315.502 190.196C315.502 190.315 315.519 190.434 315.528 190.553C316.81 190.167 318.317 189.957 319.322 189.373C323.064 187.2 326.511 184.811 330.323 182.695C332.15 181.68 332.228 180.681 331.648 178.82C325.957 182.826 320.734 186.513 315.502 190.196ZM309.811 188.97C314.506 185.804 319.166 182.667 323.861 179.506C323.185 179.609 322.033 179.563 321.418 179.915C317.399 182.23 313.483 184.624 309.551 187.007C308.286 187.773 308.425 188.448 309.811 188.97ZM360.848 175.507C360.683 175.274 360.518 175.036 360.354 174.803C359.652 174.928 358.847 174.951 358.266 175.2C356.326 176.04 354.455 176.948 352.575 177.85C349.725 179.217 346.841 180.556 344.095 182.009C343.515 182.315 343.454 183.053 343.16 183.586L343.965 183.864C349.596 181.078 355.217 178.292 360.848 175.507ZM366.279 176.471L365.811 176.426C360.033 179.524 354.256 182.621 348.47 185.713C348.625 185.85 348.781 185.991 348.937 186.128C355.408 184.789 359.236 180.948 364.538 178.497C365.413 178.094 365.716 177.158 366.287 176.465L366.279 176.471ZM308.321 186.457C312.21 184.216 316.125 181.963 319.919 179.779C314.471 179.994 308 183.677 308.321 186.457ZM349.266 151.813C343.359 152.619 341.349 156.415 337.088 158.508C343.203 157.878 345.117 154.003 349.266 151.813ZM343.316 181.112C348.175 178.95 352.887 176.857 357.98 174.593C353.528 174.593 344.009 178.939 343.316 181.112ZM331.596 183.07C328.261 185.243 324.857 187.461 321.574 189.6C326.425 188.539 330.834 187.03 331.596 183.07ZM326.858 160.619C331.154 158.151 335.017 155.927 339.288 153.476C335.918 153.442 327.429 158.372 326.858 160.619ZM331.241 166.809C329.43 168.67 325.688 169.697 327.377 172.539C329.673 170.939 332.8 169.748 331.241 166.809ZM361.887 149.759C361.133 149.918 360.103 149.93 359.67 150.27C357.201 152.171 354.871 154.157 352.489 156.108L352.974 156.409C356.828 154.815 359.366 152.364 361.887 149.765V149.759ZM354.23 185.277C359.375 184.664 362.58 182.559 364.416 179.438C361.021 181.384 357.625 183.331 354.23 185.277ZM361.618 163.002C363.36 161.146 367.769 160.097 365.603 156.835C364.59 159.183 360.995 160.449 361.618 163.002ZM366.521 169.719C361.878 172.789 361.307 173.356 361.645 174.729C364.061 173.322 368.193 172.772 366.521 169.719ZM357.469 155.206C361.454 154.247 362.831 151.456 365.811 149.601C364.572 149.567 363.386 149.686 362.849 150.14C360.934 151.768 359.236 153.51 357.461 155.206H357.469ZM361.653 169.413C363.238 167.563 367.145 166.548 366.261 163.348C364.442 165.629 361.021 166.797 361.653 169.413ZM347.621 163.745C352.489 163.87 352.307 161.022 354.706 159.938C350.704 159.853 350.003 162.156 347.621 163.745ZM365.906 160.738C364.668 162.554 361.133 163.569 361.74 166.014C363.108 164.239 367.457 163.569 365.906 160.738ZM332.722 165.759C337.209 165.884 338.326 163.592 341.237 162.23C336.906 162.259 335.485 164.312 332.722 165.759ZM338.136 165.039C343.056 165.521 343.342 162.474 346.313 161.328C341.696 161.107 341.011 163.824 338.136 165.039ZM331.371 172.999C329.69 174.57 328.131 176.034 326.572 177.498C326.762 177.583 326.962 177.668 327.152 177.753C332.367 175.507 332.462 175.404 331.371 172.999ZM360.908 171.768C361.116 171.853 361.315 171.938 361.523 172.023C365.794 169.532 366.92 168.295 366.305 166.633C364.468 168.38 362.684 170.071 360.908 171.768ZM352.428 162.849C357.045 163.053 356.846 160.772 358.284 159.495C358.041 159.348 357.807 159.2 357.565 159.059C355.988 160.222 354.403 161.39 352.428 162.849ZM350.081 160.67C346.469 160.766 345.767 162.871 343.342 164.432C347.803 164.318 347.499 161.498 350.081 160.67ZM327.36 175.223C328.365 173.651 332.306 173.265 331.232 170.86C330.271 172.448 326.589 172.942 327.36 175.223ZM326.581 157.697C326.788 157.839 326.996 157.986 327.204 158.128C329.326 156.84 331.449 155.547 333.571 154.259C333.337 154.094 333.103 153.935 332.869 153.771C330.773 155.076 328.677 156.386 326.581 157.691V157.697Z" fill="black"/>
<path d="M303.483 -4.04384C303.786 -2.14884 303.907 -0.673685 304.28 0.767427C305.12 4.01844 306.176 4.29078 310.204 2.37308C313.557 0.778774 316.883 -0.826874 320.625 -2.62543C321.508 2.11209 317.784 6.08933 317.654 10.8041C322.738 9.80558 327.468 8.88077 332.596 7.87653C332.163 8.81269 331.833 9.48218 331.548 10.1573C330.655 12.285 331.565 13.2325 334.961 13.1871C337.966 13.1474 340.972 12.7616 343.969 12.5233C345.078 12.4325 346.187 12.3247 347.936 12.1715C346.966 12.9999 346.195 13.4991 345.701 14.0949C344.515 15.5246 343.129 16.9374 342.427 18.4806C341.163 21.2324 342.947 22.9515 347.226 23.5983C347.893 23.7004 348.56 23.7798 349.409 23.8933C344.757 25.2663 339.872 23.4564 340.019 20.2849C340.114 18.2707 341.318 16.2736 342.046 14.2254C340.591 14.3388 338.815 14.5147 337.031 14.6055C331.045 14.9005 329.313 13.953 328.888 10.2311C324.609 10.929 320.313 11.6325 315.783 12.3758C314.691 7.93327 317.87 4.33617 318.433 0.0922613C315.921 1.32912 313.825 2.3901 311.703 3.41136C305.977 6.16876 303.11 5.37445 302.045 0.744733C301.932 0.24545 301.854 -0.253833 301.698 -1.09921C300.797 -0.560211 300.156 -0.168728 299.498 0.205734C296.579 1.88514 293.868 3.75745 290.689 5.19856C285.734 7.45101 280.953 6.66804 278.562 3.02555C276.812 0.358923 276.145 -2.60841 275.028 -5.44524C274.777 -6.08637 274.655 -6.75586 274.352 -7.83953C273.313 -6.52891 272.62 -5.56439 271.805 -4.6566C270.186 -2.85237 268.722 -0.963042 266.79 0.682323C263.585 3.41136 259.064 3.75745 255.01 1.5277C252.94 0.387291 251.337 -1.15027 249.761 -2.62543C248.539 -3.77151 247.69 -5.0878 246.443 -6.61402C246.14 -5.87644 245.993 -5.39985 245.741 -4.95163C244.944 -3.51619 244.347 -2.01267 243.247 -0.685032C240.224 2.94612 235.13 3.7461 229.924 1.40855C227.456 0.302187 225.264 -1.05382 222.553 -2.50628C223.203 0.00715542 223.982 2.20287 224.277 4.42694C224.528 6.32195 224.571 8.28504 224.078 10.1517C223.497 12.3587 221.401 13.3573 217.962 13.2608C215.216 13.1871 212.496 12.7843 209.768 12.4836C208.616 12.3587 207.481 12.1261 205.991 11.8878C208.841 14.0722 211.405 16.0353 213.926 18.0154C214.056 18.1175 213.822 18.4239 213.752 18.6395C211.552 18.2537 204.363 13.5616 200.11 9.69211C202.336 9.9531 204.12 10.129 205.896 10.3786C209.023 10.8212 212.107 11.3999 215.26 11.7516C220.552 12.3474 222.674 11.2467 222.44 7.69498C222.25 4.8241 221.323 1.98159 220.751 -0.877937C220.483 -2.21692 220.258 -3.56158 219.911 -5.47361C222.033 -4.50341 223.575 -3.86229 224.996 -3.11904C227.092 -2.02969 228.989 -0.753117 231.18 0.245449C235.2 2.07237 239.046 1.61848 241.159 -1.25807C242.857 -3.56726 243.576 -6.18282 244.693 -8.66789C244.953 -9.25227 245.083 -9.86503 245.421 -10.9544C246.815 -9.25227 247.829 -7.91896 248.972 -6.64239C250.8 -4.59986 252.394 -2.40983 254.681 -0.605601C258.544 2.44683 262.728 2.24258 266.08 -1.04247C268.089 -3.01124 269.623 -5.18425 271.407 -7.25514C272.498 -8.5147 273.65 -9.75156 274.777 -10.9998C275.028 -10.9771 275.27 -10.96 275.521 -10.9374C276.18 -8.75299 276.769 -6.56295 277.522 -4.39561C278.25 -2.3077 278.822 -0.151708 280.034 1.81706C282.183 5.30069 285.708 5.95316 290.23 3.69504C293.383 2.12343 296.137 0.211408 299.082 -1.53608C300.408 -2.31905 301.776 -3.07932 303.483 -4.05519V-4.04384Z" fill="black"/>
<path d="M130.637 30.9674C138.658 31.7334 144.92 34.2468 148.42 39.0184C151.027 42.5644 149.615 46.014 146.289 49.1175C142.902 52.2721 138.077 54.2635 132.828 55.8295C119.558 59.7897 105.655 60.3798 91.4149 59.0464C83.6018 58.3145 75.8839 57.2763 68.6943 55.0749C65.7406 54.1671 62.8215 53.0834 60.3008 51.7444C52.7821 47.7615 51.7514 41.7644 57.4856 36.6411C60.9678 33.532 65.8012 31.5575 71.0938 30.0483C84.0868 26.3321 97.7382 25.7874 111.572 26.8143C116.673 27.1945 121.654 28.2895 126.652 29.1519C127.328 29.271 127.778 29.9292 128.341 30.3433C127.51 30.3717 126.592 30.5533 125.855 30.4001C107.275 26.4739 88.9202 26.7179 70.8599 31.6994C66.4336 32.9192 62.5183 34.7064 59.5386 37.2312C54.0468 41.8836 54.9997 47.1941 62.0246 50.8593C67.6376 53.7926 74.2727 55.2621 81.1244 56.3174C95.9885 58.6039 110.913 59.4379 125.647 56.0791C130.403 54.9954 134.942 53.3558 139.264 51.6366C141.534 50.7345 143.457 49.2423 144.981 47.7729C148.974 43.9318 148.489 39.8694 143.327 36.6922C140.217 34.7802 136.354 33.3901 132.82 31.7845C132.135 31.4724 131.373 31.2398 130.637 30.9674Z" fill="black"/>
<path d="M15.6841 177.685C16.7235 179.019 17.737 180.358 18.8197 181.674C19.3481 182.315 20.0237 182.905 20.864 183.745C18.196 183.926 15.762 184.096 13.3366 184.261C10.2443 184.471 7.14326 184.635 4.05957 184.896C1.93736 185.078 0.638064 184.573 0.41285 183.189C-0.0462388 180.38 -0.539981 177.566 -0.66125 174.746C-0.687236 174.06 0.655384 173.345 1.69483 172.761C1.91138 170.86 1.58223 168.789 4.37142 167.314L4.32809 167.28C4.78718 167.637 5.23762 167.995 5.69671 168.352H5.60141C5.89592 168.216 6.19045 168.085 6.48496 167.961L6.40698 168.023C6.59754 167.887 6.78811 167.745 6.97868 167.609C6.44163 167.274 5.89592 166.939 5.35888 166.605L5.41085 166.633C8.06144 165.039 11.1625 164.948 14.3068 165.702C18.352 166.673 19.5387 168.942 19.8332 171.643C23.3586 171.677 23.324 173.458 23.4366 175.03C23.5145 176.063 24.8658 177.277 22.8129 178.202C22.6916 178.258 23.3153 179.172 23.7657 179.609C25.5588 181.339 24.632 183.331 22.068 183.552C21.8774 183.041 21.6955 182.559 21.505 182.071L21.5829 182.003L21.7215 181.952C21.9987 181.821 22.2759 181.691 22.5444 181.566C22.3625 181.226 22.1806 180.885 21.99 180.539L22.0593 180.59C21.8601 180.477 21.6522 180.363 21.453 180.244C21.2884 180.023 21.1325 179.796 20.9679 179.575C20.786 179.455 20.5954 179.342 20.4135 179.223C20.0844 178.888 19.7466 178.553 19.4174 178.219C19.4174 177.918 19.4261 177.617 19.4347 177.311C19.2701 177.214 19.0969 177.118 18.9323 177.021C18.7331 176.84 18.5339 176.653 18.3346 176.471C18.1787 176.295 18.0228 176.119 17.8582 175.949C17.6157 175.444 17.3732 174.945 17.122 174.44C16.4983 174.338 15.8746 174.241 15.251 174.139C15.1817 174.048 15.1124 173.958 15.0344 173.873C14.8872 174.043 14.7312 174.213 14.584 174.378V174.332C14.6446 174.48 14.7139 174.627 14.7745 174.769C14.5753 174.951 14.3761 175.132 14.1855 175.319C14.6879 176.114 15.1903 176.902 15.6927 177.697L15.6841 177.685ZM10.2876 180.59C10.5734 180.403 10.8593 180.216 11.1451 180.028L11.2058 180.074C10.7813 179.733 10.3569 179.399 9.93244 179.058L10.0364 179.081L10.1143 179.121C9.92377 178.814 9.73323 178.508 9.54267 178.202C9.31745 177.946 9.08356 177.685 8.84968 177.43H8.90166C8.74574 177.577 8.58982 177.725 8.44257 177.872C8.44257 178.139 8.42524 178.411 8.41658 178.678V178.638C8.8237 178.985 9.22215 179.325 9.62926 179.671L9.55131 179.66L9.48202 179.614C9.76787 179.955 10.0624 180.295 10.3482 180.641L10.2789 180.596L10.2876 180.59ZM15.8746 172.187C15.6754 171.416 15.6148 170.86 15.3809 170.332C14.61 168.619 12.3838 167.705 9.88914 168.046C7.35982 168.392 5.5148 169.986 5.96523 171.648C6.07784 172.063 7.0653 172.692 7.62833 172.681C10.2703 172.63 12.9122 172.386 15.8746 172.187Z" fill="black"/>
<path d="M-0.861504 48.3686C-0.740234 48.7771 -0.627625 49.1799 -0.506357 49.5884C-3.57272 50.8707 -6.6391 52.1529 -9.71413 53.4352C-6.92494 52.8224 -4.18772 52.0565 -1.60643 51.109C-1.00008 50.8877 -0.904825 50.0763 -0.575668 49.5317C-0.497709 49.5544 -0.350445 49.5884 -0.350445 49.6054C-0.636293 51.1203 -0.523689 52.743 -1.38123 54.1046C-1.86631 54.8763 -3.88457 55.5344 -5.3398 55.6762C-8.17229 55.9543 -14.7728 53.8493 -14.998 51.438C-15.1452 49.8834 -16.0288 48.8168 -17.2761 47.7388C-17.7265 47.3473 -18.5927 46.9161 -19.277 46.9104C-26.5445 46.831 -32.2355 41.7134 -32.0189 36.607C-31.8197 31.9433 -25.635 27.7107 -18.2982 27.2455C-12.2001 26.8597 -6.8643 27.898 -3.3735 31.4043C0.151962 34.9447 0.238571 38.6666 -3.08766 42.3034C-4.00584 43.3077 -3.22626 43.858 -2.55062 44.5729C-1.00877 46.2012 -1.13869 46.6097 -3.78928 47.4154C-6.44853 48.2267 -9.23772 48.8622 -11.8883 49.6849C-12.7632 49.9572 -13.3955 50.5699 -14.5476 51.2792C-11.3079 51.4891 -3.25224 48.692 -0.411087 46.6721C-0.558342 47.3473 -0.67095 47.8863 -0.792219 48.4196C-3.5121 49.4409 -6.2233 50.4621 -8.94319 51.4834C-5.98077 50.7345 -2.42934 50.5926 -0.870174 48.3742L-0.861504 48.3686ZM-2.88842 46.0707C-3.39082 45.4977 -3.69399 45.0268 -4.16175 44.6466C-5.29647 43.7275 -5.25317 42.8991 -4.30034 41.8722C-1.06073 38.3659 -1.28595 34.8596 -4.92401 31.5461C-8.16362 28.5958 -14.2271 27.3817 -20.048 28.3632C-25.7389 29.3221 -30.4078 32.9135 -30.607 36.4879C-30.8409 40.59 -27.1682 44.9927 -21.8843 45.5261C-17.8478 45.9346 -15.691 47.2111 -13.8373 49.2196C-13.768 49.2934 -13.5428 49.3047 -13.2396 49.3898C-12.5986 49.1402 -11.8796 48.8565 -11.0481 48.5274C-13.3262 45.8211 -15.1192 43.0523 -19.944 41.8665C-21.0874 41.5885 -22.5773 40.5616 -22.5253 39.9261C-22.4647 39.234 -20.9835 38.3091 -19.8054 37.9914C-16.8603 37.1914 -14.0798 35.9546 -10.6756 36.0681C-9.6708 36.1021 -8.20693 35.8922 -7.76516 36.2383C-7.11551 36.7432 -6.84698 37.6907 -7.05487 38.3716C-7.31473 39.2226 -8.31088 39.9659 -8.80462 40.8056C-9.15977 41.407 -9.57552 42.1389 -9.35031 42.7119C-8.7353 44.2665 -7.79982 45.77 -6.93361 47.4097C-5.4524 46.9218 -4.24837 46.5303 -2.89709 46.0821L-2.88842 46.0707ZM-13.0923 37.0099V39.3531C-14.1924 39.0297 -15.2925 38.7006 -15.8815 38.5248C-16.28 39.1148 -16.8257 39.9375 -17.3714 40.7545C-18.3589 40.2893 -19.3463 39.8297 -20.559 39.2623C-21.9969 39.8694 -21.2173 40.3687 -19.7881 40.9985C-17.5446 41.9914 -15.2665 42.9899 -13.3349 44.2154C-12.0789 45.0098 -11.3426 46.1785 -10.511 47.2282C-9.68815 48.2608 -8.83926 48.1586 -7.63524 47.336C-10.6063 44.4991 -12.4167 41.5488 -8.47546 38.4113C-8.27623 38.2524 -8.12031 37.946 -8.22425 37.7758C-8.45813 37.3617 -8.85659 36.9872 -9.50624 36.2156C-9.82674 36.9361 -9.90468 37.1404 -9.99996 37.3333C-10.2252 37.7928 -10.4591 38.2467 -10.6843 38.7063C-11.1087 38.3602 -11.4985 37.9971 -11.9576 37.6794C-12.3474 37.407 -12.8065 37.1744 -13.0923 37.0099Z" fill="black"/>
<path d="M214.428 55.0531C211.431 55.0531 208.598 55.1325 205.801 54.985C205.255 54.9566 204.319 54.0148 204.415 53.5723C204.926 51.178 205.229 48.6929 206.476 46.4405C212.774 35.0591 229.621 28.5287 247.716 30.3273C249.717 30.5258 251.649 31.0308 253.537 31.3769C253.303 33.1868 253.165 34.7016 252.888 36.2108C252.671 37.3626 251.805 37.8392 249.873 37.4591C244.745 36.4435 239.583 36.1257 234.281 37.1016C222.605 39.2576 213.709 47.0873 214.428 55.0474V55.0531ZM218.932 42.9398C216.273 42.4859 213.614 42.0377 210.955 41.5838C210.903 41.7313 210.851 41.8788 210.799 42.0264C213.025 42.6675 215.234 43.3426 217.503 43.893C217.737 43.9497 218.387 43.2462 218.846 42.8944C219.227 42.7412 219.617 42.588 220.543 42.2136C217.503 41.4874 214.991 40.8859 212.479 40.2845C212.384 40.4491 212.289 40.6193 212.193 40.7838C214.437 41.4987 216.68 42.2136 218.924 42.9341L218.932 42.9398ZM225.784 38.9569C223.402 38.3328 221.046 37.6803 218.638 37.113C218.005 36.9654 217.226 37.0903 216.516 37.0903L216.472 37.5442C218.369 38.1683 220.344 38.7129 222.137 39.4448C223.757 40.1087 224.814 39.9158 225.706 38.9002C226.278 38.7186 226.849 38.5427 227.534 38.3271C221.929 35.9612 219.721 35.4733 218.768 36.1541C221.072 37.0732 223.428 38.0151 225.793 38.9512L225.784 38.9569ZM251.424 34.9967C252.836 34.2818 252.766 33.6861 251.181 33.1073C249.761 32.591 248.444 31.9329 247.006 31.4336C245.897 31.0478 244.659 30.8152 243.481 30.5202C243.368 30.6847 243.264 30.8492 243.151 31.0194C244.061 31.4279 244.988 31.8251 245.871 32.2563C247.76 33.1811 249.631 34.1229 251.519 35.0591C248.392 33.8052 245.282 32.5286 242.129 31.3031C241.367 31.0081 240.475 30.8606 239.635 30.645C239.565 30.7584 239.496 30.8776 239.427 30.9911C243.515 32.7839 247.604 34.5768 252.299 36.6364C251.874 35.8421 251.649 35.4222 251.424 35.0024V34.9967ZM233.77 36.5967C234.55 36.4378 235.33 36.2789 236.239 36.0917C230.539 33.3683 227.542 32.5967 225.654 33.4591C226.624 33.8052 227.525 34.1059 228.391 34.4463C230.193 35.1499 231.977 35.8761 233.77 36.5967C230.981 35.7569 228.209 34.8946 225.394 34.0889C224.753 33.9073 223.982 33.93 223.272 33.8563C223.315 34.3385 223.419 34.435 223.558 34.4861C225.316 35.0648 227.17 35.5527 228.816 36.2449C230.453 36.9314 231.995 37.181 233.762 36.6023L233.77 36.5967ZM206.537 48.4036C206.459 48.5738 206.39 48.7383 206.312 48.9085C207.403 49.1071 208.495 49.3113 209.586 49.5042C210.712 49.7028 211.838 49.8901 212.964 50.083C212.921 50.1908 212.869 50.2986 212.826 50.4064L206.043 49.7879C206.009 49.9128 205.974 50.0376 205.931 50.1681C207.992 50.5936 210.045 51.0191 212.107 51.4446C212.055 51.5524 211.994 51.6602 211.942 51.768C209.872 51.5127 207.802 51.2574 205.723 51.0021C205.645 51.2404 205.567 51.4844 205.489 51.7227L212.141 52.8347C212.115 52.9368 212.089 53.0389 212.063 53.1411C209.854 52.9709 207.646 52.795 205.437 52.6248C205.411 52.8007 205.385 52.9822 205.359 53.1581C207.923 53.3737 210.487 53.5836 213.059 53.7992C213.692 51.8418 214.307 49.9468 214.922 48.0461C212.306 47.5979 209.828 47.178 207.351 46.7525C207.187 46.8944 207.013 47.0362 206.849 47.178C207.62 47.4958 208.339 47.8986 209.17 48.1199C210.279 48.4149 211.474 48.5681 212.626 48.7837C212.574 48.9085 212.522 49.0277 212.47 49.1525C210.495 48.9028 208.512 48.6532 206.537 48.3979V48.4036ZM236.161 31.1045C241.15 33.0847 244.91 36.3584 251.701 37.2094C246.382 34.6449 241.636 32.4379 236.161 31.1045ZM207.828 45.7767C210.998 47.2405 215.026 47.666 215.641 46.6391C213.415 46.1852 211.171 45.7256 208.936 45.266C209.023 45.1015 209.101 44.9426 209.187 44.7781C211.587 45.2263 213.995 45.6802 216.394 46.1284C216.481 45.9185 216.568 45.7029 216.654 45.493C214.203 44.9653 211.751 44.4377 209.187 43.8873C208.659 44.6136 208.235 45.2036 207.819 45.771L207.828 45.7767ZM229.076 32.3471C232.861 33.1527 235.373 35.8761 239.791 35.7343C236.516 34.1627 233.433 32.296 229.076 32.3471ZM243.463 36.1825C243.576 36.0406 243.68 35.8988 243.792 35.7513C237.192 32.1655 234.567 31.2294 232.549 31.7627C236.196 33.2378 239.834 34.7073 243.463 36.1825ZM229.743 37.5101C223.376 34.957 222.103 34.6392 220.682 35.1953C223.783 36.0974 226.269 37.6406 229.743 37.5101ZM214.766 38.4803C217.468 39.2009 219.824 40.6136 222.943 40.5058C220.258 39.7399 217.945 38.259 214.766 38.4803ZM217.269 45.0334C217.356 44.7838 217.442 44.5341 217.529 44.2845C215.069 43.7852 212.609 43.2916 210.149 42.7923C210.062 42.9739 209.967 43.1554 209.88 43.3313C212.34 43.8987 214.801 44.4604 217.261 45.0277L217.269 45.0334ZM205.558 53.907L205.506 54.4687H212.739C212.739 54.3723 212.739 54.2758 212.73 54.1794C210.34 54.0886 207.949 53.9978 205.558 53.907ZM213.666 39.2803C213.588 39.4221 213.51 39.5583 213.432 39.7002C216.013 40.398 218.586 41.0959 221.167 41.7937C221.288 41.5895 221.418 41.3796 221.54 41.1753C218.915 40.5455 216.29 39.9101 213.666 39.2803Z" fill="black"/>
<path d="M18.0735 14.4344C17.7184 14.2585 16.8608 14.0486 16.6789 13.6911C16.4364 13.2259 16.6443 12.6301 16.8175 12.1195C17.0254 11.4841 17.6231 10.8713 17.6578 10.2415C17.7184 9.0614 17.3286 7.86993 17.4412 6.69548C17.5538 5.45862 17.9782 4.29552 20.1611 3.69411C20.9753 3.47284 21.3651 2.57073 21.9455 1.98066C21.1052 1.64592 20.317 1.12961 19.4075 1.00479C17.1987 0.709761 15.882 -0.181007 15.1111 -1.44056C14.4441 -2.53558 14.0977 -3.72138 13.4134 -4.81639C13.0842 -5.34972 12.2526 -5.73553 11.7589 -6.23481C11.2825 -6.72275 10.6242 -7.27309 10.6502 -7.78372C10.6675 -8.13549 11.6463 -8.68584 12.3046 -8.77094C18.0649 -9.53121 23.8425 -10.2404 29.6374 -10.8645C30.4863 -10.9553 31.9675 -10.6886 32.262 -10.2972C32.5911 -9.86029 31.8895 -9.09434 31.673 -8.46456C31.5344 -8.05606 31.3352 -7.63621 31.3611 -7.2277C31.4391 -6.15538 31.7249 -5.08873 31.7596 -4.02208C31.8202 -2.34835 31.1359 -0.918584 28.6672 -0.01647C28.0089 0.221824 27.3766 0.806211 27.2726 1.27713C27.212 1.54379 28.2168 2.15655 28.8145 2.20194C33.1542 2.52534 34.1763 4.71537 35.2331 6.91108C35.7961 8.07418 35.6229 9.39047 37.927 10.0827C39.2436 10.4798 38.6286 11.9153 37.0608 12.1195C30.8674 12.9138 24.6567 13.6344 18.0562 14.4344H18.0735ZM16.4797 -1.62779C17.6577 -1.00369 18.8271 -0.368238 20.0225 0.244518C21.0706 0.772169 22.3266 1.18068 23.1148 1.83882C23.3747 2.06009 22.6991 3.14944 22.0581 3.38206C18.3421 4.72104 18.7405 7.0359 18.6626 9.20892C18.6106 10.6614 19.8492 11.3479 21.8935 11.1096C25.3756 10.7068 28.8232 10.2075 32.3053 9.80465C34.4535 9.56068 34.9732 8.78907 34.4881 7.4898C33.6652 5.28274 32.1667 3.5466 28.5286 2.80902C25.7394 2.24165 25.2024 0.66437 27.4805 -0.283134C31.2225 -1.83772 30.928 -4.11853 30.6162 -6.45608C30.4863 -7.43195 29.5767 -7.79507 28.0695 -7.61919C25.3583 -7.30713 22.6298 -7.04615 19.9099 -6.76246C18.0562 -6.59225 16.1939 -6.42204 13.5779 -6.18942C14.6434 -4.51569 15.5529 -3.0689 16.4711 -1.62779H16.4797Z" fill="black"/>
<path d="M233.322 191.54C232.361 188.108 229.347 185.912 224.357 184.914C216.371 183.319 208.289 186.746 207.102 192.148C206.929 192.948 206.028 193.714 205.292 194.417C204.435 195.234 203.386 195.972 202.797 197.038C203.43 196.834 204.071 196.63 204.694 196.42C206.496 195.818 207.839 195.841 209.346 197.033C212.629 199.625 218.493 200.828 223.586 200.187C223.699 199.506 223.803 198.78 223.95 198.06C224.79 193.833 227.484 192.182 233.929 192.21C238.511 192.227 243.093 192.38 247.667 192.596C252.483 192.823 253.869 193.799 253.808 196.993C253.774 198.831 255.367 199.722 257.446 200.567C259.291 201.322 261.578 201.94 261.145 203.83C260.963 203.898 260.807 204 260.677 203.994C256.615 203.733 256.606 203.728 255.471 206.428C254.882 207.83 253.375 208.482 251.296 208.573C245.692 208.817 240.079 209.146 234.466 209.197C227.138 209.265 224.314 207.518 223.413 202.763C223.361 202.491 223.266 202.224 223.153 201.844C217.263 201.969 212.352 200.613 208.029 198.077C207.267 197.628 205.491 197.821 204.209 197.889C203.3 197.94 202.425 198.281 201.299 198.542C201.316 196.652 202.849 195.393 204.573 194.122C205.405 193.509 206.124 192.664 206.314 191.864C207.172 188.21 211.329 185.214 217.15 184.25C222.382 183.382 228.732 184.777 231.694 187.626C232.811 188.698 233.366 190.02 234.171 191.228L233.322 191.546V191.54ZM259.863 202.326C258.997 201.878 258.642 201.617 258.2 201.475C254.467 200.312 252.466 198.57 253.003 195.699C253.263 194.287 251.556 193.424 249.642 193.345C243.266 193.078 236.874 192.97 230.49 192.851C230.057 192.845 229.606 193.271 229.165 193.492C229.269 193.606 229.373 193.719 229.468 193.838C228.645 193.929 227.822 194.014 226.358 194.173C227.536 194.502 227.987 194.627 229.043 194.922C227.597 195.052 226.861 195.115 225.916 195.2C226.272 195.546 226.531 195.79 226.731 195.989C226.211 196.238 225.31 196.46 225.284 196.715C225.093 198.973 224.652 201.265 225.093 203.484C225.648 206.281 227.415 207.274 231.668 207.325C237.879 207.393 244.107 207.211 250.317 207.041C252.258 206.99 253.739 206.343 254.094 204.908C254.839 201.912 254.9 201.901 259.854 202.326H259.863Z" fill="black"/>
<path d="M282.893 93.8496C278.674 93.6681 274.456 93.4525 270.229 93.3163C268.817 93.2709 268.202 92.9248 268.263 91.983C268.462 88.7093 268.497 85.4299 268.878 82.1676C268.938 81.6286 270.515 80.7094 271.32 80.7435C279.757 81.0669 288.185 81.5491 296.614 81.9917C298.017 82.0654 298.866 82.4853 298.71 83.5179C298.225 86.6044 297.714 89.6909 297.315 92.783C297.177 93.895 296.345 94.1901 294.795 94.173C290.827 94.1333 286.86 94.1617 282.893 94.1617V93.8553V93.8496ZM270.913 92.227C279.558 92.6355 287.7 93.0213 296.769 93.4468C293.608 91.4951 290.975 89.8043 288.194 88.227C287.7 87.9434 286.375 87.898 285.803 88.1306C284.313 88.7434 283.109 88.5958 281.793 87.9888C280.979 87.6086 280.069 87.3136 279.263 87.0072C276.492 88.7377 273.884 90.366 270.905 92.227H270.913ZM283.031 87.8412C287.51 86.2015 292.031 84.5448 297.021 82.7236C288.523 82.4059 280.615 82.1165 272.161 81.8044C276.076 83.9775 279.489 85.8725 283.04 87.8469L283.031 87.8412ZM270.463 82.4286C270.082 85.6512 269.752 88.4426 269.406 91.4043C272.481 89.776 275.391 88.2327 278.475 86.5987C275.885 85.2484 273.365 83.9377 270.463 82.4229V82.4286ZM288.913 86.9845C291.451 88.8625 293.824 90.6213 296.596 92.6695V83.881C294.128 84.8796 291.659 85.8781 288.913 86.9845Z" fill="black"/>
<path d="M204.68 207.716C199.777 207.716 194.961 207.739 190.145 207.705C188.681 207.693 188.014 207.126 188.178 206.133C188.551 203.858 189.625 201.838 192.838 200.613C190.508 198.269 190.543 196.454 192.856 195.092C195.073 193.787 199.439 193.764 201.743 195.058C204.376 196.533 204.42 198.388 201.648 201.35C204.792 202.916 206.282 204.987 204.671 207.716H204.68ZM201.449 199.501C199.707 198.088 197.975 196.675 196.234 195.262C196.017 195.342 195.801 195.427 195.576 195.506C196.988 197.191 198.408 198.876 199.967 200.743C200.643 200.176 201.05 199.835 201.449 199.489C202.774 197.288 201.873 195.977 198.27 195.427C199.404 196.891 200.426 198.196 201.44 199.501H201.449ZM194.25 195.728C193.479 196.459 192.44 196.817 193.367 197.918C195.697 200.675 197.862 203.495 200.158 206.264C200.392 206.547 201.05 206.683 201.509 206.893C201.596 206.241 201.31 205.855 200.989 205.486C198.815 202.99 196.572 200.516 194.493 197.986C194.103 197.515 194.337 196.823 194.242 195.728H194.25ZM197.481 199.325C197.325 199.415 197.161 199.506 197.005 199.591C199.04 201.878 201.067 204.164 203.103 206.451C203.346 206.354 203.579 206.264 203.822 206.167C201.708 203.886 199.604 201.605 197.49 199.319L197.481 199.325ZM194.701 201.469C195.706 204.159 198.261 206.615 199.63 206.576C197.966 204.856 196.338 203.166 194.701 201.469ZM193.046 202.133C193.783 203.954 195.047 205.537 196.858 206.882C197.074 206.785 197.282 206.695 197.499 206.598C196.017 205.112 194.528 203.62 193.046 202.133Z" fill="black"/>
<path d="M249.657 47.0646C238.795 44.7951 229.665 48.4943 229.163 55.6829C226.062 55.4332 223.013 55.1836 219.981 54.9339C221.09 44.2674 233.762 38.4349 245.768 39.7909C250.532 40.3299 251.597 41.2661 250.601 44.2901C250.298 45.2149 249.978 46.1341 249.657 47.0646ZM228.444 51.5978C228.981 51.439 229.518 51.2801 230.661 50.934C227.604 50.2134 225.395 49.351 222.709 49.7198C224.641 50.3553 226.573 50.9964 228.522 51.6375C226.382 51.3312 224.251 51.0248 222.112 50.7184C222.051 50.9056 221.991 51.0929 221.93 51.2801C223.671 51.6659 225.403 52.0574 227.144 52.4432C227.387 52.4999 227.63 52.6021 227.872 52.6021C229.319 52.585 229.085 52.1311 228.452 51.5921L228.444 51.5978ZM235.027 41.232C239.245 42.4292 241.905 45.4192 246.955 45.6405C243.334 43.7625 239.765 41.8221 235.027 41.232ZM241.861 45.822C242.035 45.5837 242.208 45.3454 242.372 45.1015C239.263 43.9157 236.162 42.7299 233.052 41.5384C232.87 41.754 232.688 41.9639 232.506 42.1795C235.625 43.3937 238.743 44.6022 241.861 45.8163V45.822ZM235.304 46.8716C230.297 44.5568 228.799 44.171 227.3 44.8064C232.758 47.3312 233.996 47.6546 235.304 46.8716ZM240.796 40.1654C240.683 40.3015 240.571 40.4434 240.449 40.5796C243.438 41.7994 246.418 43.0192 249.752 44.3809C249.674 43.8249 249.796 43.354 249.571 43.2689C246.669 42.2022 243.724 41.1866 240.787 40.1654H240.796ZM220.631 54.5141C223.368 54.6956 225.741 54.8545 228.106 55.0134C224.832 53.4077 221.826 53.2318 220.631 54.5141ZM232.29 49.5893C230.211 47.7 226.278 46.6447 224.364 47.3369C226.919 48.0631 229.327 48.744 232.29 49.5893ZM225.733 46.0603C227.153 46.4915 228.556 46.8603 229.873 47.3426C232.628 48.3468 232.61 48.3695 233.381 47.9043C228.47 45.7993 227.136 45.4646 225.733 46.0603ZM249.224 45.9525C249.103 45.3851 249.224 44.7327 248.878 44.5908C246.504 43.632 244.035 42.7866 241.593 41.9015L241.463 42.049C243.932 43.2916 246.392 44.5341 249.224 45.9582V45.9525ZM229.466 43.2292C231.692 45.0958 236.248 46.5312 237.357 46.0093C234.698 45.0731 232.082 44.154 229.466 43.2292ZM249.986 42.9738C250.073 41.5611 247.379 40.4547 243.914 40.4717C246.036 41.3455 247.899 42.1171 249.986 42.9738ZM231.224 42.4235C231.094 42.571 230.964 42.7185 230.834 42.866C233.537 43.927 236.24 44.9937 238.942 46.0546C239.089 45.8901 239.237 45.7312 239.375 45.5667C236.655 44.5171 233.944 43.4731 231.224 42.4235ZM230.592 50.3553L230.947 49.7595C228.591 49.1865 226.235 48.6135 223.879 48.0404C223.784 48.205 223.688 48.3752 223.602 48.5397C225.932 49.1468 228.262 49.7482 230.592 50.3553ZM221.783 52.046L221.428 52.6247L228.253 53.7595C228.323 53.5666 228.4 53.3793 228.47 53.1864C226.244 52.8063 224.009 52.4262 221.783 52.046Z" fill="black"/>
<path d="M102.365 190.752C104.644 191.83 106.887 192.942 109.2 193.98C123.605 200.431 144.255 200.476 158.695 194.054C165.893 190.854 170.648 186.587 171.792 180.789C171.887 180.324 172.701 179.921 173.178 179.49C173.412 180.023 173.931 180.585 173.836 181.095C172.805 186.701 168.44 191.047 161.675 194.417C147.01 201.725 124.22 202.252 108.923 195.535C106.255 194.366 104.107 192.692 101.716 191.251C101.932 191.086 102.14 190.922 102.357 190.752H102.365Z" fill="black"/>
<path d="M52.771 193.239C52.3205 191.305 51.8615 189.824 51.6622 188.332C51.4977 187.118 50.9866 186.403 48.8817 186.193C47.3139 186.034 45.7547 185.518 44.3515 184.984C38.1148 182.596 36.1918 177.938 40.2889 174.051C42.1859 172.253 44.8625 170.533 47.7903 169.518C57.9336 166 68.2761 166.187 78.2201 169.96C83.7811 172.071 86.9774 175.367 87.6704 179.594C88.2681 183.265 86.1026 185.83 80.7321 186.998C77.1806 187.77 73.2914 188.326 69.584 188.258C64.0317 188.162 59.3455 188.882 55.6641 191.73C55.0751 192.184 54.2175 192.496 52.7623 193.239H52.771ZM53.6805 191.849C53.8797 191.934 54.0789 192.014 54.2782 192.099C57.8816 187.713 63.8584 187.35 70.3896 187.367C73.9237 187.379 77.6138 186.788 80.9486 185.971C85.4009 184.882 87.0467 182.471 86.3364 179.396C85.5915 176.162 83.2441 173.54 79.3375 171.526C75.3443 169.467 70.7101 168.4 65.7207 168.105C57.076 167.594 49.0983 168.701 42.9742 173.07C36.9541 177.365 39.0329 182.834 47.3139 184.973C48.2754 185.223 49.2802 185.506 50.285 185.546C52.2166 185.614 52.6584 186.323 52.797 187.418C52.9789 188.905 53.3687 190.374 53.6632 191.855L53.6805 191.849Z" fill="black"/>
<path d="M254.963 209.106C255.812 207.262 256.522 205.713 257.293 204.028C255.309 202.082 255.266 200.51 257.327 198.638C259.025 197.101 261.633 196.562 264.188 197.22C266.778 197.889 268.484 199.642 267.878 201.418C267.523 202.451 268.172 202.825 269.177 203.483C270.814 204.561 272.088 205.906 273.222 207.239C273.465 207.523 272.607 208.629 272.027 208.72C266.605 209.566 261.113 209.679 254.954 209.095L254.963 209.106ZM265.47 207.62C264.292 206.031 263.131 204.442 261.927 202.865C261.018 201.668 260.047 200.493 259.103 199.313C258.826 199.398 258.549 199.483 258.272 199.569C258.965 200.737 259.64 201.906 260.359 203.064C261.485 204.873 262.646 206.672 263.798 208.471C262.49 207.109 261.182 205.747 259.874 204.386C259.744 204.425 259.606 204.465 259.476 204.505C260.195 205.583 260.914 206.661 261.624 207.739C261.433 207.801 261.251 207.869 261.061 207.932C260.264 207.149 259.467 206.36 258.428 205.333C258.341 205.855 258.159 206.133 258.28 206.332C259.276 207.96 261.095 208.709 263.798 208.465C264.335 208.17 264.881 207.875 265.426 207.591C266.076 207.807 266.735 208.022 267.956 208.425C265.418 204.703 263.192 201.447 260.966 198.19C260.636 198.281 260.307 198.371 259.978 198.462C260.437 199.126 260.94 199.779 261.338 200.459C262.733 202.842 264.101 205.237 265.47 207.625V207.62ZM266.734 203.676C266.527 203.75 266.327 203.824 266.119 203.898C267.297 205.344 267.592 207.115 269.498 208.3C269.732 208.215 269.974 208.124 270.208 208.039C269.047 206.581 267.895 205.129 266.734 203.671V203.676ZM265.331 202.621C265.634 200.635 264.101 198.53 262.403 198.349C263.33 199.705 264.222 200.998 265.331 202.621Z" fill="black"/>
<path d="M183.479 21.3345C184.856 20.4778 185.913 19.621 187.247 19.0366C189.646 17.9757 192.279 17.8338 194.8 18.9175C197.321 20.0012 198.75 21.5728 198.074 23.5415C197.598 24.9429 196.818 26.4408 195.484 27.5415C192.66 29.8734 189.377 31.9726 186.294 34.174C185.211 34.9513 183.99 34.9626 182.864 34.3215C179.156 32.2166 175.397 30.1343 171.889 27.8932C170.719 27.15 170.026 25.9869 169.498 24.9316C168.216 22.3898 169.593 20.1827 172.945 19.0083C176.194 17.8735 179.927 18.4352 182.448 20.4437C182.82 20.7387 183.158 21.0565 183.479 21.3345ZM184.942 34.2307C187.879 31.9953 190.616 30.0946 193.007 28.0237C194.436 26.7812 195.597 25.3344 196.376 23.8649C197.243 22.2479 196.056 20.6536 193.856 19.7799C191.534 18.8551 189.273 19.1615 187.411 20.2792C186.302 20.943 185.644 21.9132 184.743 22.7302C184.431 23.0139 183.998 23.2465 183.626 23.5018C183.253 23.2408 182.812 23.0082 182.517 22.7132C182.188 22.3841 182.041 21.987 181.737 21.6465C180.04 19.7742 176.965 19.0253 174.21 19.7856C171.222 20.6139 169.775 22.5713 171.118 24.699C172.019 26.1231 173.379 27.5358 175.042 28.6138C178.099 30.5882 181.53 32.313 184.951 34.2307H184.942Z" fill="black"/>
<path d="M44.938 159.979C46.0034 160.989 46.9909 161.931 47.961 162.862C47.5366 163.066 47.372 163.202 47.2681 163.185C41.8456 162.164 36.3279 162.777 30.8362 162.697C21.0307 162.561 16.05 157.625 19.281 151.588C23.8805 142.998 39.6282 142.028 48.0563 147.032C52.4653 149.653 52.9244 153.687 49.2777 156.853C48.039 157.931 46.5058 158.862 44.938 159.985V159.979ZM42.7118 159.605C44.5395 158.544 46.4365 157.682 47.8658 156.564C51.5038 153.716 51.2873 150.13 47.1728 147.724C42.0968 144.757 36.0854 144.082 29.7447 145.631C23.6726 147.112 20.4417 150.215 19.6967 154.368C19.1424 157.483 21.3772 159.968 25.8815 161.075C28.0903 161.614 30.5676 161.818 32.9497 161.886C37.1075 162.011 41.2913 161.92 45.3105 161.92C44.7561 161.421 43.9505 160.7 42.7118 159.594V159.605Z" fill="black"/>
<path d="M54.7955 -7.03953C55.3932 -8.96291 57.7579 -10.2565 60.9889 -10.421C66.0821 -10.682 69.7202 -8.44093 70.5951 -4.40128C71.0368 -4.37858 71.5219 -4.33319 72.007 -4.32185C77.8972 -4.21405 81.5612 -1.8538 81.7518 1.95323C81.925 5.43119 78.3043 7.88789 72.5354 8.14888C70.5518 8.23966 68.5682 8.23398 66.5759 8.251C64.5923 8.26802 62.6173 8.251 60.3479 8.251C60.8676 9.97013 61.3527 11.5928 61.8377 13.2155C61.6818 13.2892 61.5259 13.3573 61.37 13.4311C59.0052 11.9843 56.5799 10.5715 54.3191 9.06234C53.8167 8.72192 53.8687 8.02406 53.6694 7.49073C54.5703 8.28505 55.4625 9.07369 56.7445 10.2084C56.7445 9.49921 56.7445 9.28361 56.7445 9.06801C57.6366 9.57864 58.5202 10.0836 59.4124 10.5942C59.5509 10.7928 59.6895 10.9971 59.8195 11.1956C60.166 10.5035 60.1746 9.85098 59.8022 9.30631C59.1525 8.36448 59.8195 7.92193 60.9802 7.57017C61.3007 7.45102 61.8897 7.32619 61.881 7.2184C61.8551 6.85528 61.6125 6.49784 61.4566 6.13473C61.7944 6.50352 62.0456 6.92337 62.4874 7.22407C62.8166 7.45102 63.3883 7.53612 63.8474 7.68364C63.804 7.34889 63.7694 7.00847 63.7261 6.67373C64.445 7.01414 65.1726 7.35456 65.8916 7.70066C65.9695 7.40563 66.0475 7.11627 66.1254 6.82124C66.5412 7.13329 66.957 7.44534 67.3641 7.75739C67.4594 7.70633 67.5547 7.6496 67.6413 7.59853C66.4373 5.74892 65.2419 3.89363 64.0379 2.04401C65.3805 3.70072 66.6971 5.36311 68.0744 7.00847C68.4642 7.47371 68.88 8.47228 69.7722 7.18435C70.3352 7.36591 70.9069 7.54747 71.4699 7.72903C71.4873 7.39428 71.5046 7.05953 71.5219 6.72479C72.007 7.07088 72.4921 7.41698 72.9685 7.76307C73.1331 7.68931 73.3063 7.61555 73.4709 7.54747C73.4189 7.23542 73.3583 6.92337 73.3063 6.61131C74.0079 7.434 74.8655 7.69498 76.1388 6.83826C75.4372 6.21416 74.7096 5.57871 73.9906 4.93758C75.0301 5.51062 76.0608 6.08366 77.1523 6.69075C79.6556 5.72622 81.5006 4.13759 80.799 2.28798C80.0627 0.330563 78.824 -1.71763 76.0435 -3.02825C76.1388 -2.73889 76.2254 -2.44954 76.3553 -2.06373C75.4718 -2.71052 74.7529 -3.2325 74.0339 -3.75448C73.8867 -3.65803 73.7394 -3.56157 73.5922 -3.46512C74.5796 -2.08075 75.5671 -0.690698 76.5459 0.693678C74.6576 -0.668003 74.2591 -2.64244 71.6345 -3.97575V-2.57436C71.1321 -2.99988 70.7163 -3.34598 70.3006 -3.69774C70.1013 -3.62966 69.9108 -3.56157 69.7116 -3.49349C70.032 -2.94314 70.3439 -2.3928 70.6644 -1.84245C69.9801 -2.70485 69.0359 -3.52753 68.6548 -4.44099C67.7713 -6.56862 65.9869 -8.25937 63.2063 -9.60403C63.7694 -8.83241 64.3324 -8.05512 64.8868 -7.2835C63.882 -8.15157 62.8772 -9.01964 61.881 -9.88772L61.4046 -9.69481C62.0803 -8.8778 62.7473 -8.06647 63.4229 -7.24946C62.3748 -8.10051 61.318 -8.95156 60.2699 -9.80261C60.1313 -9.7402 59.9841 -9.67779 59.8455 -9.61538C60.1486 -9.06503 60.4518 -8.50901 60.7636 -7.95867C60.3219 -8.33313 59.9061 -8.73029 59.421 -9.07638C59.1871 -9.24092 58.7974 -9.32035 58.4682 -9.43382C58.3816 -9.16716 58.2863 -8.90617 58.1997 -8.63951C56.372 -8.93454 56.5279 -8.44093 57.1516 -7.6069C58.7281 -5.48495 60.2266 -3.33463 61.7598 -1.20133C59.8541 -3.44243 57.9572 -5.6892 56.0515 -7.9303L55.679 -7.88491C55.7137 -7.49343 55.7483 -7.10762 55.7916 -6.71613C55.4278 -6.84663 55.0554 -6.97712 54.6915 -7.10762L54.7782 -7.05655L54.7955 -7.03953Z" fill="black"/>
<path d="M281.836 21.6749C280.216 23.6834 278.934 25.4025 277.47 27.0592C276.301 28.3869 275.279 28.3528 274.144 27.0195C273.434 26.1855 272.845 25.3117 271.641 24.4664C271.641 25.828 271.736 27.1897 271.589 28.5457C271.537 29.0053 270.896 29.4365 270.524 29.879C270.168 29.4308 269.536 28.9883 269.501 28.5287C269.363 26.5543 269.302 24.5685 269.441 22.594C269.484 21.9699 270.246 21.3629 270.671 20.7444C271.39 21.1643 272.317 21.499 272.776 22.0153C273.85 23.2295 274.707 24.5344 275.859 26.0833C277.358 24.1713 278.588 22.4409 280.069 20.8068C280.606 20.2111 281.732 19.8423 282.581 19.3714C283.101 19.9728 284.028 20.5629 284.071 21.1756C284.236 23.8706 284.14 26.577 283.664 29.3514C283.083 26.9231 282.503 24.5004 281.827 21.6749H281.836Z" fill="black"/>
<path d="M114.352 43.5289C116.24 45.0835 118.025 46.553 119.809 48.0168L119.289 48.3459C116.959 47.0977 114.629 45.8551 111.978 44.4367C111.814 46.1275 111.667 47.5686 111.528 49.0154C111.259 49.0154 111 49.021 110.731 49.0267C109.925 45.3729 108.947 41.7361 108.401 38.0652C108.132 36.2666 109.735 35.5631 112.515 35.8241C113.364 35.9035 114.205 36.0624 115.01 36.2496C117.392 36.8056 119.436 37.6397 119.688 39.4836C119.939 41.3162 117.955 42.1786 115.859 42.9502C115.357 43.1375 114.863 43.3304 114.352 43.5289ZM110.515 37.3673C110.835 39.0694 111.156 40.7488 111.528 42.7063C114.005 41.668 117.21 41.6283 117.34 39.4496C117.41 38.2524 114.213 37.3219 110.515 37.3673Z" fill="black"/>
<path d="M107.223 49.6281C106.261 48.2154 105.3 46.8026 104.286 45.3161C103.836 45.3161 103.325 45.3388 102.822 45.3161C99.9034 45.1629 98.3009 45.9005 98.5348 47.9544C98.5694 48.2835 98.5175 48.6863 98.2489 48.9359C97.9198 49.248 97.3307 49.4409 96.8457 49.6849C96.5078 49.3955 95.8322 49.0778 95.8842 48.8225C96.6811 45.1402 97.5213 41.4637 98.5001 37.7985C98.6127 37.373 99.5915 36.8 100.233 36.7602C100.822 36.7262 101.722 37.2312 102.104 37.651C105.473 41.2822 106.954 45.3105 107.881 49.4466C107.665 49.509 107.439 49.5657 107.223 49.6281ZM100.908 39.3815C100.683 39.3985 100.466 39.4098 100.241 39.4269C99.9294 40.8736 99.6089 42.3204 99.2537 43.9488C100.917 43.7956 102.06 43.6935 103.455 43.563C102.528 42.0368 101.714 40.7091 100.9 39.3815H100.908Z" fill="black"/>
<path d="M194.346 43.0694V41.7247C195.091 41.8268 195.922 41.8268 196.572 42.0481C198.157 42.5871 199.664 43.2282 201.639 43.9998C199.465 44.97 197.611 45.7984 195.758 46.6268C195.533 46.4849 195.316 46.3487 195.091 46.2069C195.818 45.5374 196.546 44.8736 196.953 44.4991C185.346 44.4991 173.522 44.4991 161.707 44.4991C161.014 44.4991 160.278 44.5786 159.646 44.4481C159.195 44.3573 158.892 43.9658 158.528 43.7105C158.883 43.5006 159.187 43.1715 159.594 43.1091C160.252 43.007 160.971 43.0694 161.664 43.0694C172.561 43.0694 183.466 43.0694 194.355 43.0694H194.346Z" fill="black"/>
<path d="M3.38408 155.297C3.50534 154.253 3.66127 152.806 3.82585 151.354L4.41486 151.308C5.22043 154.406 6.02601 157.504 6.88355 160.806C5.12516 160.046 3.64395 159.291 1.99816 158.735C0.724833 158.304 -0.756378 158.151 -2.11632 157.816C-2.6014 157.697 -2.97387 157.391 -3.40697 157.169C-2.93056 156.925 -2.45414 156.488 -1.96907 156.483C-0.791029 156.471 0.387007 156.664 2.15407 156.829C-3.37233 153.357 -8.86407 150.707 -16.4174 150.69C-16.8505 150.69 -17.3269 150.803 -17.6994 150.713C-18.323 150.571 -18.8774 150.31 -19.4578 150.1C-18.8861 149.845 -18.2537 149.323 -17.7427 149.368C-14.3558 149.669 -10.7091 149.669 -7.70336 150.571C-3.72748 151.762 -0.271311 153.691 3.38408 155.297Z" fill="black"/>
<path d="M15.9895 7.99C14.1791 7.7971 12.3601 7.64958 10.5757 7.38292C9.89141 7.28079 9.29371 6.89498 8.66138 6.63967C9.27639 6.4184 9.86542 6.08932 10.5151 6.00989C11.2513 5.91911 12.0656 6.02124 12.8278 6.095C15.3485 6.35031 18.0511 6.61698 18.8133 8.51198C19.6189 10.5034 17.462 11.7233 15.1753 12.824C15.8509 11.7346 16.5265 10.6396 17.3061 9.37438C10.6277 10.4637 4.47761 11.5134 -1.71576 12.4665C-5.07664 12.9828 -8.48948 13.3573 -11.8937 13.7091C-12.4827 13.7715 -13.1757 13.4027 -13.8167 13.2325C-13.2883 12.9431 -12.8292 12.4665 -12.2315 12.3814C-2.87647 11.0595 6.49587 9.78288 15.8682 8.49496C15.9029 8.33042 15.9375 8.16021 15.9722 7.99568L15.9895 7.99Z" fill="black"/>
<path d="M125.873 42.4396C128.844 42.0141 131.642 41.6112 134.44 41.2084C134.57 41.458 134.7 41.7077 134.829 41.963C132.066 42.7062 129.312 43.4495 126.505 44.2041C126.245 47.5572 128.506 48.5104 135.843 48.0735C133.071 50.309 127.475 50.0026 125.362 47.4948C124.418 46.3658 123.465 45.2424 122.547 44.102C122.434 43.9658 122.373 43.7105 122.486 43.614C124.166 42.1729 122.841 40.7148 122.581 39.268C122.2 37.129 123.101 36.1985 126.306 35.7447C127.727 35.5461 129.216 35.461 130.672 35.4723C131.148 35.4723 131.616 35.9319 132.084 36.1815C131.676 36.4198 131.313 36.8056 130.845 36.868C129.494 37.0439 128.099 37.0439 126.739 37.1914C125.232 37.356 124.461 37.9233 124.807 38.99C125.18 40.1417 125.518 41.2935 125.873 42.4396Z" fill="black"/>
<path d="M18.0214 44.5048C18.3246 45.0041 18.7577 45.702 19.1821 46.3998C18.9742 46.5133 18.7577 46.6268 18.5498 46.7402C16.878 45.702 15.2149 44.6693 13.3699 43.5233C15.2842 42.8311 16.904 42.2467 18.8096 41.5602C19.1648 42.0992 19.5026 42.6041 19.7885 43.0467C28.0607 43.0467 36.4456 43.0467 44.8305 43.0467C45.4368 43.0467 46.0778 42.9616 46.6408 43.075C47.2212 43.1885 47.7149 43.4892 48.252 43.7105C47.6976 43.9772 47.1519 44.4594 46.5802 44.4708C43.4705 44.5445 40.3522 44.5105 37.2339 44.5105C30.8413 44.5105 24.4486 44.5105 18.0214 44.5105V44.5048Z" fill="black"/>
<path d="M72.4105 60.828C64.6753 65.1172 56.9487 69.4065 49.2482 73.6788C50.4522 74.2292 51.6822 74.7909 52.9122 75.3526C52.8342 75.483 52.7563 75.6135 52.6783 75.744C49.7939 75.3752 46.9007 75.0065 43.6611 74.5923C44.8392 73.3497 45.8267 72.1072 47.1433 71.0406C47.4898 70.7569 48.8324 70.9952 49.7159 70.9952C49.7592 71.1484 49.8112 71.2959 49.8545 71.4491C53.4233 69.4803 57.0007 67.5172 60.5695 65.5428C64.1036 63.5854 67.6031 61.5939 71.9774 60.4705C72.116 60.584 72.2632 60.7031 72.4018 60.8166L72.4105 60.828Z" fill="black"/>
<path d="M150.984 17.1464C150.854 16.5166 150.733 15.8868 150.568 15.0698C144.886 18.3492 139.403 21.5151 133.911 24.681C133.201 25.0895 132.534 25.5604 131.737 25.8782C131.252 26.0711 130.55 26.02 129.944 26.0824C130.091 25.6512 130.065 25.1292 130.438 24.8172C131.07 24.2952 131.953 23.9037 132.733 23.4555C137.922 20.4825 143.119 17.5095 148.411 14.4741C147.71 14.2755 146.991 14.0656 145.787 13.7252C146.558 13.311 147.199 12.7493 147.545 12.8174C150.967 13.4869 152.621 11.9266 154.475 10.5933C155.046 10.1791 155.618 9.76494 156.684 8.99332C154.769 12.0117 153.124 14.6046 151.486 17.1974C151.313 17.1748 151.149 17.1577 150.975 17.135L150.984 17.1464Z" fill="black"/>
<path d="M98.5787 4.28419C97.8425 4.42603 97.1409 4.55653 95.625 4.85156C96.9676 2.39486 98.1023 0.329643 99.2371 -1.73557C99.4276 -1.73557 99.6269 -1.74124 99.8174 -1.74692C100.762 -0.0277959 101.697 1.697 102.641 3.41612C102.468 3.4842 102.295 3.55796 102.122 3.62604C101.576 3.39342 101.021 3.15513 100.19 2.80336C100.493 5.49268 100.84 8.00612 101.047 10.5252C101.299 13.572 101.481 16.6244 101.567 19.6769C101.576 20.1648 100.9 20.6584 100.545 21.152C100.173 20.6641 99.4969 20.1818 99.4623 19.6825C99.1158 14.5989 98.8646 9.51531 98.5874 4.29554L98.5787 4.28419Z" fill="black"/>
<path d="M76.1181 37.7475C75.3298 37.7078 74.4809 37.5319 73.762 37.6624C72.2981 37.9347 70.2279 38.1276 69.6389 38.8085C68.6947 39.9035 70.5743 40.4935 71.9516 40.9871C73.7706 41.6339 75.7023 42.1786 77.3221 42.9956C80.9602 44.8225 80.1546 47.7672 75.8669 48.8168C72.6532 49.6055 68.6427 48.8849 66.2866 47.0863C68.1836 47.3076 70.046 47.631 71.9256 47.7104C73.0777 47.7615 74.3683 47.58 75.4338 47.2679C77.7725 46.5927 78.0844 45.2424 76.0228 44.2495C74.2384 43.3871 72.1508 42.7914 70.1932 42.0878C67.43 41.0949 66.3213 39.3531 67.5253 37.8893C68.7467 36.4142 72.7918 35.5688 75.044 36.3574C75.581 36.5447 75.9795 36.9135 76.4472 37.1971C76.3346 37.3787 76.222 37.5602 76.1094 37.7418L76.1181 37.7475Z" fill="black"/>
<path d="M54.688 13.9805C54.6534 14.1848 54.7227 14.5308 54.5148 14.7748C54.3069 15.0188 53.7958 15.2968 53.4493 15.2798C53.1029 15.2627 52.5918 14.928 52.5052 14.6784C51.8988 12.9933 51.3878 11.2912 50.8594 9.65717C53.5706 11.0188 56.4118 12.4429 59.3742 13.9294C58.9671 14.077 58.508 14.2415 57.8323 14.4855C62.1547 17.623 66.4771 20.7549 70.7908 23.8811C71.1373 24.1307 71.657 24.3293 71.8389 24.6186C72.0641 24.9761 72.0208 25.4016 72.0988 25.7988C71.4837 25.7193 70.7388 25.759 70.297 25.5321C69.4135 25.0895 68.6512 24.5279 67.915 23.9718C63.506 20.6527 59.1143 17.3223 54.688 13.9748V13.9805Z" fill="black"/>
<path d="M288.03 13.9587C285.319 14.7984 288.22 16.4721 287.458 18.1856C286.739 17.187 286.09 16.4551 285.674 15.6722C285.249 14.8892 284.773 14.3729 283.292 14.5771C281.88 14.7757 280.026 14.3332 279.636 15.831C279.48 16.4438 279.255 17.0622 278.883 17.6239C278.683 17.9189 278.086 18.1005 277.67 18.3331C277.376 18.0381 276.743 17.6806 276.847 17.4537C278.086 14.5318 279.238 11.5871 280.832 8.74461C281.585 7.3886 283.396 7.4964 284.426 8.82404C284.963 9.5219 285.137 10.3389 285.648 11.0481C286.341 12.024 287.198 12.9488 288.039 13.953L288.03 13.9587ZM280.667 13.3403C282.131 13.2041 283.067 13.119 284.201 13.0112C283.656 11.8084 283.214 10.8155 282.763 9.8226C282.599 9.8226 282.434 9.8226 282.27 9.8226C281.793 10.8722 281.317 11.9219 280.667 13.3403Z" fill="black"/>
<path d="M239.973 15.0537C241.22 13.5672 242.285 11.9843 243.801 10.6283C244.581 9.93041 246.131 8.4666 247.491 10.5375C247.604 10.7134 248.271 10.7304 248.661 10.8382C252.299 11.8595 253.719 13.8396 252.628 16.3643C251.692 18.526 249.059 19.7459 245.88 19.4735C242.814 19.2125 240.666 17.5048 240.631 15.292C240.414 15.2126 240.189 15.1332 239.973 15.0537ZM250.818 14.8438C250.852 13.119 248.427 11.0481 246.469 11.1276C245.014 11.1843 242.831 13.5332 242.771 15.1048C242.701 16.7785 244.399 18.0835 246.66 18.1005C248.999 18.1232 250.783 16.7218 250.818 14.8381V14.8438Z" fill="black"/>
<path d="M249.068 54.5538C249.042 56.0346 247.431 57.2545 244.953 58.0772C242.649 58.8374 240.406 58.7183 238.422 57.646C236.283 56.4942 235.174 54.968 235.815 53.1524C236.283 51.8248 237.331 50.7354 239.895 50.9C240.362 50.9283 240.865 50.7298 241.35 50.6163C245.3 49.7199 249.016 51.4049 249.076 54.5538H249.068ZM246.946 53.1638C243.749 53.1468 241.255 50.8886 237.357 52.0177C240.726 53.0219 243.593 53.8787 246.461 54.7354C242.978 54.6957 240.302 52.8687 236.802 53.0787C236.716 53.2319 236.62 53.385 236.534 53.5439C239.773 54.6049 243.013 55.6659 246.261 56.7325C248.236 55.6659 248.895 54.0999 247.604 52.9538C246.426 51.9099 244.009 51.456 242.138 50.7468C241.991 50.934 241.852 51.1213 241.705 51.3028C242.623 51.5808 243.567 51.8248 244.451 52.1425C245.308 52.4489 246.114 52.8234 246.946 53.1694V53.1638ZM236.664 54.3893C237.98 56.307 243.706 57.9013 245.282 56.9481C242.528 56.1311 239.808 55.3198 236.664 54.3893Z" fill="black"/>
<path d="M298.415 29.5159C298.181 26.5429 297.895 23.6947 297.826 20.8465C297.826 20.5458 299.056 19.9501 299.688 19.9671C303.838 20.0579 308.506 24.3585 306.904 26.8266C306.306 27.7457 304.461 28.4379 302.963 28.9542C301.828 29.3457 300.338 29.3003 298.415 29.5216V29.5159ZM300.096 28.3812C303.612 27.8876 305.094 27.0762 305.102 25.7656C305.111 24.1146 302.521 22.038 300.096 21.6862V28.3812Z" fill="black"/>
<path d="M239.141 9.66942C236.62 10.3049 234.152 10.929 231.683 11.5531C231.718 11.7573 231.752 11.9616 231.787 12.1658C233.138 12.5857 234.515 12.9772 235.849 13.4254C238.041 14.163 239.843 15.2012 239.513 16.9544C239.184 18.7019 236.906 19.2976 234.654 19.5246C232.74 19.7175 230.73 19.6097 228.781 19.5076C228.339 19.4849 227.967 18.9515 227.56 18.6565C228.132 18.4976 228.695 18.214 229.275 18.1969C230.808 18.1459 232.419 18.4012 233.857 18.1572C235.13 17.9473 236.213 17.2324 237.383 16.7445C236.508 16.0466 235.737 15.258 234.706 14.6736C233.961 14.2537 232.74 14.197 231.934 13.8055C231.025 13.3686 229.699 12.7275 229.708 12.1885C229.717 11.5077 230.687 10.6283 231.622 10.2084C233.935 9.16446 236.56 8.99425 239.158 9.66942H239.141Z" fill="black"/>
<path d="M286.098 20.6083C289.069 19.5246 292.092 19.6608 294.483 21.2097C292.326 21.3118 290.516 21.3969 288.653 21.4877V24.3472C290.065 24.6082 291.312 24.8408 292.568 25.0734C292.568 25.272 292.568 25.4763 292.568 25.6749C291.338 25.8394 290.108 26.0039 288.584 26.2139C288.497 26.9968 288.411 27.8819 288.307 28.8578C290.957 28.9826 293.478 29.1017 296.007 29.2209C296.042 29.4762 296.068 29.7315 296.103 29.9868C294.102 30.1287 292.101 30.2478 290.108 30.418C287.648 30.6223 286.496 30.401 286.756 28.3358C287.077 25.7827 286.366 23.1784 286.107 20.6083H286.098Z" fill="black"/>
<path d="M84.0003 41.2424C86.417 41.3956 88.5652 41.5318 90.7134 41.668C90.7307 41.9233 90.748 42.1786 90.7653 42.4339C88.5912 42.6495 86.417 42.8594 84.0955 43.0864C83.7664 44.9303 83.4286 46.8197 83.0128 49.1345C82.5537 48.5615 82.2505 48.3629 82.2419 48.1587C82.0426 44.658 81.8434 41.1573 81.7481 37.6567C81.7395 37.2709 82.3978 36.8737 82.7529 36.4822C83.1687 36.8964 83.8877 37.2879 83.9483 37.7248C84.1129 38.8879 84.0089 40.068 84.0089 41.2424H84.0003Z" fill="black"/>
<path d="M269.354 17.2948C269.354 15.7573 269.432 13.9587 269.294 12.1715C269.268 11.78 268.479 11.4226 268.064 11.0368C267.804 10.7928 267.44 10.5318 267.414 10.2651C267.397 10.0836 267.89 9.70345 268.133 9.70912C270.255 9.77721 272.594 9.29494 274.811 10.8268C271.078 10.8495 271.381 12.3814 271.433 13.8396C271.476 15.014 271.433 16.1885 271.433 17.4991C272.039 17.6466 273.01 17.8849 273.988 18.1288C273.988 18.3501 273.971 18.5657 273.962 18.787L266.123 19.2976C265.993 19.0934 265.855 18.8891 265.725 18.6849C266.79 18.2764 267.856 17.8679 269.346 17.3005L269.354 17.2948Z" fill="black"/>
<path d="M263.421 10.4694C259.921 10.8325 258.024 12.1261 257.366 14.5885C256.768 16.8353 258.605 18.1742 262.095 18.1289C262.84 18.1175 263.585 18.3955 264.33 18.5374C263.655 18.8608 263.031 19.3941 262.295 19.4735C258.267 19.899 255.122 18.1062 255.14 15.4395C255.157 13.414 256.188 11.6552 258.795 10.4297C260.45 9.65239 261.671 9.69211 263.421 10.4694Z" fill="black"/>
<path d="M97.7742 186.593C102.434 188.136 106.402 189.447 110.36 190.757C110.282 190.916 110.204 191.069 110.135 191.228C106.965 190.616 103.786 190.003 100.321 189.333C100.191 190.417 100.148 191.62 99.8531 192.8C99.7404 193.248 99.0561 193.634 98.6317 194.042C98.3459 193.577 97.8348 193.112 97.8175 192.641C97.7222 190.74 97.7742 188.834 97.7742 186.593Z" fill="black"/>
<path d="M92.4541 49.9005C92.073 45.475 91.6832 41.2595 91.3887 37.0439C91.3627 36.7262 92.0124 36.3858 92.3415 36.0567C92.74 36.295 93.4936 36.539 93.4936 36.7773C93.5196 40.9928 93.4503 45.214 93.381 49.4295C93.381 49.526 93.0258 49.6168 92.4541 49.9005Z" fill="black"/>
<path d="M291.529 9.5446C291.529 11.6212 291.668 13.7034 291.486 15.7743C291.356 17.2892 292.292 17.8452 294.457 17.7487C294.63 17.7431 294.812 17.7204 294.968 17.7487C296.042 17.9757 297.099 18.214 298.165 18.4466C297.039 18.6792 295.912 19.0877 294.778 19.1104C290.273 19.1898 289.295 18.5544 289.433 15.5644C289.529 13.5218 289.953 11.485 290.23 9.44815L291.521 9.53326L291.529 9.5446Z" fill="black"/>
<path d="M48.4286 7.42266C49.8492 7.65528 51.2611 7.8879 52.9935 8.17159C50.2996 8.17159 47.8743 8.37017 45.5528 8.12052C43.1275 7.85954 41.3344 6.76452 40.9446 5.07376C40.5115 3.2128 41.5336 1.66956 43.9937 0.421356C44.2362 0.977376 44.4268 1.41992 44.626 1.86814C44.2449 1.73765 43.8551 1.61283 43.1967 1.38588C43.6298 2.54331 43.9157 3.45677 44.3315 4.34186C44.7732 5.28936 45.293 6.22552 45.856 7.14465C46.4537 8.11485 47.3632 8.16024 48.4286 7.42266Z" fill="black"/>
<path d="M248.722 120.408C247.145 118.292 246.123 116.408 244.434 114.831C243.178 113.656 241.03 112.902 239.323 111.926C238.838 111.648 238.5 111.256 238.093 110.916C238.691 110.803 239.479 110.468 239.852 110.61C241.671 111.302 243.654 111.949 245.066 112.93C247.881 114.888 248.895 117.361 248.722 120.402V120.408Z" fill="black"/>
<path d="M50.36 0.183041C49.0087 -1.29211 47.6575 -2.76159 46.3062 -4.23675C46.1503 -4.20838 45.9943 -4.18001 45.8384 -4.14597C45.9597 -3.64669 46.0809 -3.14173 46.2022 -2.64245C46.1156 -2.13749 45.7605 -1.57012 45.9943 -1.13892C46.5314 -0.151706 47.3543 0.761755 47.6228 1.85677C46.592 0.597218 44.9549 -0.6056 44.6604 -1.93891C44.028 -4.77007 47.5362 -7.07926 51.9452 -7.14167C52.8893 -7.15869 53.8422 -7.07926 54.795 -7.04521L54.7084 -7.09628C55.5486 -5.77999 56.3888 -4.46937 57.229 -3.15308C56.0337 -4.31618 54.8383 -5.48496 53.6429 -6.64806C53.4783 -6.58565 53.3138 -6.52324 53.1492 -6.46083C53.2878 -6.16012 53.435 -5.85374 53.5736 -5.55304L51.4601 -6.71047C51.2955 -6.65373 51.1309 -6.59699 50.975 -6.54026C51.1309 -6.10906 51.2782 -5.67219 51.4341 -5.24099C50.8797 -5.62112 50.3253 -6.00126 49.3985 -6.64238C48.9567 -5.96722 48.6103 -5.45091 48.2725 -4.94028C47.9086 -5.03674 47.5448 -5.12751 46.4881 -5.40552C47.952 -3.30059 49.156 -1.56445 50.3687 0.177367L50.36 0.183041Z" fill="black"/>
<path d="M280.45 77.0045C280.632 74.962 280.814 72.9195 281.005 70.877C281.273 70.877 281.533 70.877 281.802 70.877C282.018 73.5663 282.235 76.2556 282.477 79.1946C279.705 78.2073 277.297 77.3449 274.889 76.4882C275.011 76.2783 275.141 76.074 275.262 75.8641C276.977 76.2386 278.692 76.613 280.459 76.9988L280.45 77.0045Z" fill="black"/>
<path d="M240.821 123.251C240.432 122.139 240.336 121.265 239.817 120.522C238.881 119.183 237.66 117.929 236.629 116.612C236.291 116.181 236.187 115.676 235.789 114.791C241.255 116.652 243.256 120.215 240.821 123.251Z" fill="black"/>
<path d="M334.918 39.6094C323.743 36.1428 312.561 36.6137 301.317 39.3087C312.613 36.2052 323.847 35.808 334.918 39.6094Z" fill="black"/>
<path d="M18.9325 177.01C19.0971 177.107 19.2703 177.203 19.4349 177.299C19.2097 177.68 18.9845 178.054 18.7679 178.434V178.389C19.0971 178.689 19.4262 178.996 19.764 179.297L19.6861 179.308C19.6861 179.308 19.7814 179.348 19.79 179.348L19.8073 179.297C19.4955 179.648 19.1837 180 18.8718 180.352C17.8151 179.461 16.7583 178.576 15.7015 177.685C15.1991 176.891 14.6967 176.102 14.1943 175.308C14.5062 175.274 14.8267 175.246 15.1385 175.212H15.0692C15.7622 174.951 16.4465 174.69 17.1394 174.429C17.382 174.934 17.6245 175.433 17.8757 175.938C17.7978 176.369 17.7111 176.8 17.6332 177.231L17.5725 177.186C17.8497 177.055 18.1183 176.925 18.3954 176.794C18.5773 176.868 18.7679 176.936 18.9498 177.01H18.9325Z" fill="black"/>
<path d="M33.9021 -0.548859C30.4633 2.63974 32.7068 5.7092 34.2746 8.88645C30.3334 6.37869 30.0562 1.35749 33.9021 -0.548859Z" fill="black"/>
<path d="M1.62378 29.7816C3.17429 27.5973 5.29648 25.7533 8.70933 24.8001C8.8999 24.925 9.08182 25.0498 9.27239 25.1746C6.72575 26.7122 4.17042 28.2441 1.62378 29.7816Z" fill="black"/>
<path d="M11.0397 37.5092C8.57103 37.3276 6.09369 37.1517 3.625 36.9702L3.71163 36.312C6.19764 36.4142 8.68366 36.5219 11.1697 36.6241C11.1264 36.9191 11.083 37.2141 11.0397 37.5092Z" fill="black"/>
<path d="M37.6013 7.35456C35.5484 5.0397 35.6437 2.80995 37.6013 1.27806V7.35456Z" fill="black"/>
<path d="M211.115 183.836C213.238 186.298 215.117 186.712 220.236 185.759C218.799 186.797 216.659 187.126 214.372 186.559C212.458 186.088 210.933 185.35 211.115 183.836Z" fill="black"/>
<path d="M292.382 130.651C293.742 132.818 294.193 135.53 292.382 138.594V130.651Z" fill="black"/>
<path d="M291.928 54.6162C289.121 51.751 288.836 49.056 290.819 45.9128C290.525 47.5866 289.962 48.9426 290.126 50.2645C290.299 51.6092 291.183 52.9198 291.919 54.6162H291.928Z" fill="black"/>
<path d="M302.036 59.3594C304.41 59.5523 306.775 59.8076 309.148 59.9211C312.31 60.08 312.31 60.0346 311.469 62.6104V60.5509C308.221 60.2502 305.051 59.9551 301.889 59.6601L302.036 59.3594Z" fill="black"/>
<path d="M303.825 146.213C303.661 146.406 303.427 146.588 303.34 146.798C303.124 147.331 302.976 147.876 302.803 148.42C303.566 148.341 304.796 148.409 305.003 148.142C305.359 147.672 305.168 146.996 305.038 146.418C305.003 146.276 304.371 146.185 304.016 146.072C304.7 146.219 305.393 146.367 306.077 146.514C305.592 147.28 305.376 148.256 304.51 148.744C303.955 149.056 302.448 148.653 301.374 148.568C301.287 148.381 301.192 148.199 301.105 148.012C302.015 147.416 302.916 146.815 303.825 146.219V146.213Z" fill="black"/>
<path d="M263.447 105.866C264.651 105.469 265.829 105.049 267.068 104.703C267.31 104.635 267.951 104.806 268.038 104.953C268.142 105.129 267.925 105.549 267.691 105.617C266.435 105.963 265.119 106.23 263.828 106.525C263.698 106.303 263.577 106.082 263.447 105.866Z" fill="black"/>
<path d="M273.101 125.913C276.193 125.692 279.285 125.476 282.378 125.255C282.395 125.374 282.421 125.493 282.438 125.612C279.346 125.822 276.254 126.032 273.153 126.242L273.101 125.907V125.913Z" fill="black"/>
<path d="M277.246 99.9034C278.346 98.9389 279.273 98.1276 280.295 97.2368C281.351 98.6439 280.13 99.7332 277.246 99.9034Z" fill="black"/>
<path d="M21.5828 181.992L21.5048 182.06C20.6213 181.515 19.7378 180.976 18.8542 180.431C19.2181 180.465 19.5818 180.499 19.9456 180.533C20.1189 180.647 20.3008 180.76 20.474 180.88C20.6386 180.88 20.7945 180.88 20.9591 180.88C21.1324 180.766 21.3056 180.653 21.4789 180.539L22.0592 180.579L21.9899 180.528C22.0159 180.766 22.0419 181.004 22.0592 181.243C21.8513 181.362 21.6434 181.481 21.4355 181.6L21.5135 181.538C21.5135 181.674 21.5135 181.81 21.5135 181.946L21.5741 181.986L21.5828 181.992Z" fill="black"/>
<path d="M5.6012 168.346L5.6965 168.352C5.23741 167.995 4.78697 167.637 4.32788 167.28L4.37121 167.314C4.71769 167.087 5.06416 166.86 5.41064 166.633L5.35867 166.605C5.72247 166.939 6.07762 167.274 6.44142 167.609C6.43276 167.745 6.41543 167.887 6.40677 168.023L6.48475 167.961C6.19024 168.091 5.89571 168.216 5.6012 168.346Z" fill="black"/>
<path d="M8.45996 177.878C8.61588 177.731 8.76313 177.583 8.91905 177.436C8.91905 177.436 8.86708 177.436 8.86708 177.43C8.73715 177.577 8.59854 177.731 8.46861 177.878H8.45996Z" fill="black"/>
<path d="M8.43359 178.678C8.65015 178.616 8.86668 178.559 9.09189 178.497C8.87534 178.542 8.65879 178.587 8.44224 178.633V178.672L8.43359 178.678Z" fill="black"/>
<path d="M9.53416 179.183C9.73339 179.16 9.92395 179.138 10.1232 179.115L10.0452 179.075L10.1059 179.177C9.90663 179.177 9.71607 179.177 9.51685 179.177H9.53416V179.183Z" fill="black"/>
<path d="M9.94116 179.058C9.98462 179.211 10.0368 179.365 10.0802 179.524L10.1063 179.563V179.177C10.1063 179.177 10.0454 179.081 10.0454 179.075L9.94116 179.053V179.058Z" fill="black"/>
<path d="M10.0799 179.523C9.88932 179.552 9.69008 179.58 9.49951 179.614L9.56882 179.66L9.5255 179.569C9.72472 179.569 9.91528 179.569 10.1145 179.569L10.0885 179.529L10.0799 179.523Z" fill="black"/>
<path d="M9.6472 179.665C9.61244 179.506 9.56898 179.342 9.53422 179.183L9.51685 179.177C9.51685 179.308 9.51685 179.433 9.51685 179.563L9.56029 179.654L9.6385 179.665H9.6472Z" fill="black"/>
<path d="M10.6337 180.221C10.8243 180.17 11.0235 180.125 11.2141 180.074L11.1535 180.028C10.9542 180.085 10.755 180.148 10.5645 180.204L10.6337 180.221Z" fill="black"/>
<path d="M10.3654 180.636C10.452 180.499 10.5473 180.363 10.6339 180.221L10.5647 180.204C10.478 180.335 10.3828 180.46 10.2961 180.59L10.3654 180.636Z" fill="black"/>
<path d="M21.7215 181.941L21.5829 181.992L21.5223 181.952C21.5223 181.816 21.5223 181.68 21.5223 181.543L21.4443 181.606C21.6436 181.589 21.8515 181.572 22.0507 181.555C21.9381 181.685 21.8255 181.81 21.7129 181.941H21.7215Z" fill="black"/>
<path d="M14.5929 174.366C14.8354 174.27 15.078 174.179 15.3118 174.082C15.0693 174.162 14.8268 174.241 14.5842 174.321V174.366H14.5929Z" fill="black"/>
<path d="M40.4162 109.764C35.8253 112.351 30.3162 113.424 24.53 113.821C21.4809 114.031 18.276 114.014 15.2702 113.656C10.3242 113.066 7.68227 110.717 7.84685 107.449C8.04608 103.432 10.5667 100.108 15.4002 97.617C19.506 95.5007 24.2355 95.4496 28.3846 97.339C32.5424 99.234 35.1237 103.325 33.8937 106.099C33.218 107.625 31.5896 108.408 29.2508 108.698C26.9121 108.987 25.4395 108.306 24.4174 107.018C24.2701 106.837 24.0709 106.678 23.811 106.423C22.7976 107.342 22.018 108.227 20.9785 108.942C19.5839 109.9 17.8948 109.759 16.8121 108.726C13.7544 105.81 16.3963 101.781 21.6975 101.254C22.0267 101.22 22.3471 101.14 22.6503 101.055C24.8158 100.442 25.3962 100.783 25.4308 102.383C25.4568 103.586 25.6127 104.84 26.1844 105.969C26.4789 106.542 27.9602 107.325 28.6531 107.234C29.7965 107.081 31.2084 106.428 31.6762 105.742C32.9235 103.915 30.8706 100.505 27.9515 98.9276C24.7812 97.2198 21.4463 96.9588 18.0941 98.1616C12.9921 99.9942 9.33673 104.754 10.125 108.527C10.5321 110.491 12.2992 111.983 15.149 112.147C19.3847 112.391 23.7591 112.38 27.9515 111.971C32.1786 111.563 36.2671 110.536 40.4162 109.776V109.764ZM19.2028 108.584C20.4848 106.916 21.5762 105.691 22.3385 104.38C22.581 103.966 21.9314 103.33 21.6888 102.791C20.8746 102.962 19.8438 102.984 19.2981 103.33C17.531 104.454 17.4184 106.167 19.2028 108.584Z" fill="black"/>
<path d="M19.9182 -6.76247C22.6381 -7.04616 25.3667 -7.30714 28.0779 -7.6192C29.5851 -7.79508 30.4946 -7.43197 30.6246 -6.45609C30.9364 -4.11854 31.2222 -1.83773 27.4889 -0.283143C25.2108 0.66436 25.7478 2.24164 28.537 2.80901C32.1751 3.54659 33.6736 5.28273 34.4965 7.48979C34.9816 8.78338 34.4618 9.555 32.3136 9.80464C28.8315 10.2018 25.3753 10.7068 21.9019 11.1096C19.849 11.3479 18.6189 10.6614 18.6709 9.20891C18.7489 7.03589 18.3504 4.72103 22.0664 3.38205C22.7074 3.14943 23.3831 2.06009 23.1232 1.83881C22.3436 1.18067 21.079 0.777833 20.0309 0.244508C18.8355 -0.362574 17.6661 -0.998023 16.4794 -1.6278C15.7951 -3.00083 15.1108 -4.37953 14.3918 -5.82632C16.4794 -6.17808 18.1945 -6.47311 19.9096 -6.76815L19.9182 -6.76247ZM29.4032 -4.36818C29.256 -5.38377 29.152 -6.14404 29.0221 -7.06318C24.4052 -6.50148 20.0742 -5.97383 15.5699 -5.42916C16.0636 -4.4079 16.4101 -3.68167 16.8086 -2.85331C21.0703 -3.36962 25.0982 -3.85188 29.4032 -4.36818ZM25.5399 2.80333C26.718 5.32244 29.3599 5.48698 32.0105 5.82173C31.3002 3.46715 27.8527 4.1026 25.5399 2.80333ZM24.5698 3.84162C24.3532 3.73382 24.1453 3.62602 23.9288 3.51822C21.2609 5.15224 20.0424 6.50446 20.2734 7.57489C21.9452 6.12243 23.2618 4.98203 24.5698 3.84162Z" fill="black"/>
<path d="M17.6244 177.231C17.7196 177.084 17.8149 176.942 17.9102 176.794C17.7976 176.925 17.685 177.055 17.5637 177.186L17.6244 177.231Z" fill="black"/>
<path d="M18.7679 178.44C19.0018 178.343 19.2444 178.253 19.4782 178.156C19.2357 178.236 19.0018 178.315 18.7593 178.394V178.44H18.7679Z" fill="black"/>
<path d="M19.7562 179.302L19.6428 179.172L19.6777 179.314L19.7562 179.302Z" fill="black"/>
<path d="M20.483 179.177C20.483 179.308 20.483 179.438 20.483 179.569C20.2578 179.478 20.0239 179.387 19.79 179.302C19.79 179.302 19.7814 179.353 19.7727 179.353C20.0066 179.297 20.2405 179.234 20.4743 179.177H20.483Z" fill="black"/>
<path d="M15.1298 175.217C14.9912 175.058 14.8439 174.905 14.7053 174.746C14.8179 174.905 14.9392 175.064 15.0518 175.223H15.1211L15.1298 175.217Z" fill="black"/>
<path d="M20.4221 179.518C20.6213 179.518 20.8206 179.518 21.0198 179.512C20.9938 179.756 20.9678 180 20.9418 180.244L21.0198 180.199C20.8206 180.199 20.6213 180.199 20.4308 180.199L20.5087 180.221C20.4827 179.989 20.4567 179.75 20.4308 179.518H20.4221Z" fill="black"/>
<path d="M20.4913 180.533C20.2921 180.55 20.0842 180.562 19.885 180.579C20.0929 180.46 20.2921 180.341 20.5 180.221L20.4221 180.199C20.4221 180.329 20.4221 180.46 20.4221 180.584L20.4913 180.533Z" fill="black"/>
<path d="M8.98828 178.553C9.19617 178.417 9.39539 178.287 9.60328 178.15C9.39539 178.287 9.19617 178.417 8.98828 178.553Z" fill="black"/>
<path d="M18.4128 176.846C18.2135 176.846 18.0143 176.846 17.8064 176.84C18.0056 176.709 18.2049 176.579 18.4041 176.448C18.4041 176.579 18.4041 176.715 18.4041 176.846H18.4128Z" fill="black"/>
<path d="M21.9816 181.606C21.9816 181.475 21.9816 181.345 21.9816 181.214C22.1808 181.345 22.3714 181.47 22.5706 181.6C22.3714 181.6 22.1721 181.606 21.9729 181.611L21.9816 181.606Z" fill="black"/>
<path d="M21.531 180.584C21.3318 180.567 21.1412 180.556 20.942 180.539L21.0113 180.584C21.0113 180.454 21.0113 180.329 21.0113 180.199L20.9333 180.244C21.1326 180.227 21.3318 180.21 21.5224 180.193C21.5224 180.323 21.5224 180.448 21.5224 180.579L21.531 180.584Z" fill="black"/>
<path d="M76.1149 178.789C67.0717 178.057 58.0285 177.33 48.9854 176.599C49.046 176.315 49.0979 176.026 49.1586 175.742C58.2018 176.502 67.245 177.262 76.2881 178.023C76.2362 178.278 76.1755 178.533 76.1236 178.789H76.1149Z" fill="black"/>
<path d="M50.1377 173.132C58.6958 172.667 67.0373 173.983 75.4569 174.732C75.4309 174.908 75.4135 175.084 75.3876 175.26C66.9507 174.715 58.5225 174.176 50.0857 173.631C50.103 173.467 50.1203 173.296 50.1377 173.132Z" fill="black"/>
<path d="M49.2971 178.874L56.8071 179.435C56.7811 179.651 56.7464 179.872 56.7205 180.088C54.2085 179.969 51.6878 179.844 49.1758 179.725C49.2191 179.441 49.2538 179.157 49.2971 178.874Z" fill="black"/>
<path d="M22.1743 154.555C27.6487 151.798 33.5649 149.546 40.3733 148.297C34.4658 150.561 28.5496 152.825 22.6421 155.089C22.4862 154.913 22.3302 154.737 22.1743 154.561V154.555Z" fill="black"/>
<path d="M24.6604 156.048C29.2686 154.289 33.8682 152.536 38.4764 150.777L38.9961 151.338C34.4659 153.171 29.9269 154.998 25.3967 156.831C25.1541 156.57 24.9116 156.309 24.6604 156.048Z" fill="black"/>
<path d="M34.2232 156.172C31.7286 156.995 29.2339 157.823 26.488 158.731C27.0944 157.29 30.5072 156.076 34.2232 156.172Z" fill="black"/>
<path d="M55.7397 -6.76721C57.758 -4.25378 59.7763 -1.74601 61.7859 0.767421C60.8417 -0.27086 59.8109 -1.28645 58.962 -2.35877C57.8186 -3.80556 56.8052 -5.29773 55.7397 -6.76721Z" fill="black"/>
<path d="M21.0111 180.925C20.8119 180.925 20.6213 180.925 20.4221 180.925C20.4481 180.794 20.4654 180.67 20.4914 180.539L20.4221 180.59C20.6213 180.59 20.8119 180.59 21.0111 180.59L20.9418 180.545C20.9678 180.675 20.9851 180.8 21.0111 180.931V180.925Z" fill="black"/>
</g>
</svg>
