<svg width="24" height="24" viewBox="0 0 24 24" fill="none" xmlns="http://www.w3.org/2000/svg">
<g clip-path="url(#clip0_224_2353)">
<path d="M0.488872 11.854H2.98805M12.4974 11.854H7.36162M7.36162 11.854V8.10524H2.98805V11.854M7.36162 11.854H2.98805M12.4974 11.854C12.4931 11.2131 12.6157 10.5777 12.858 9.98429C13.1003 9.39092 13.4575 8.85133 13.9092 8.39661C14.3609 7.94189 14.8981 7.581 15.4898 7.33474C16.0816 7.08847 16.7162 6.96169 17.3571 6.96169C17.998 6.96169 18.6326 7.08847 19.2244 7.33474C19.8161 7.581 20.3533 7.94189 20.805 8.39661C21.2567 8.85133 21.6139 9.39092 21.8562 9.98429C22.0985 10.5777 22.221 11.2131 22.2168 11.854C22.1946 13.1281 21.6729 14.3425 20.7641 15.2357C19.8553 16.1288 18.632 16.6293 17.3577 16.6293C16.0835 16.6293 14.8602 16.1288 13.9513 15.2357C13.0425 14.3425 12.5208 13.1281 12.4987 11.854H12.4974Z" stroke="white" stroke-width="2" stroke-linecap="round" stroke-linejoin="round"/>
</g>
<defs>
<clipPath id="clip0_224_2353">
<rect width="24" height="24" fill="white"/>
</clipPath>
</defs>
</svg>
