<svg width="119" height="119" viewBox="0 0 119 119" fill="none" xmlns="http://www.w3.org/2000/svg">
<path d="M36.6011 65V63.452H30.7691V59.276H36.6011V57.728H30.7691V53.948H36.6011V52.4H29.0411V65H36.6011ZM49.6525 65V52.4H47.9245V61.796L40.9945 52.4H39.4825V65H41.2105V55.604L48.1225 65H49.6525ZM59.7844 53.948V52.4H51.7204V53.948H54.8884V65H56.6164V53.948H59.7844ZM70.8234 65L66.8274 59.564C68.3754 59.24 69.9054 58.16 69.9054 56.018C69.9054 53.408 67.5294 52.4 65.6034 52.4H61.8594V65H63.5874V59.672H64.8834L68.6634 65H70.8234ZM68.0694 56.072C68.0694 57.512 66.8274 58.124 65.1534 58.124H63.5874V53.948H65.5134C67.0434 53.948 68.0694 54.794 68.0694 56.072ZM80.4585 65V63.452H74.6265V59.276H80.4585V57.728H74.6265V53.948H80.4585V52.4H72.8985V65H80.4585ZM92.3039 65L88.3079 59.564C89.8559 59.24 91.3859 58.16 91.3859 56.018C91.3859 53.408 89.0099 52.4 87.0839 52.4H83.3399V65H85.0679V59.672H86.3639L90.1439 65H92.3039ZM89.5499 56.072C89.5499 57.512 88.3079 58.124 86.6339 58.124H85.0679V53.948H86.9939C88.5239 53.948 89.5499 54.794 89.5499 56.072Z" fill="white"/>
<circle cx="59.5" cy="59.5" r="41.5" stroke="white" stroke-width="6"/>
<circle cx="59.5" cy="59.5" r="55.5" stroke="white" stroke-opacity="0.6" stroke-width="8"/>
</svg>
